<svg xmlns="http://www.w3.org/2000/svg" width="403" height="531" viewBox="0 0 403 531">
  <g id="Group_2184" data-name="Group 2184" transform="translate(-1594 -3427)">
    <path id="Path_195" data-name="Path 195" d="M384.073,33.3,136.012,281.359q1.411,5.1,3.08,10.092L394.165,36.379Q389.177,34.711,384.073,33.3Zm69.506,34.854L170.866,350.865q2.869,3.7,5.9,7.27L460.852,74.052Q457.284,71.02,453.579,68.149Zm-43.741-25.83-264.8,264.8q1.966,4.569,4.152,9.021L418.862,46.471Q414.409,44.286,409.838,42.319Zm-54.8-14.772L130.261,252.322q.708,5.771,1.739,11.437L366.475,29.283Q360.807,28.254,355.039,27.547Zm117.1,56.833L187.1,369.419q3.279,3.312,6.711,6.462L478.6,91.094Q475.442,87.666,472.136,84.381Zm-141.869-58.4c-2.907,0-5.788.1-8.667.22L128.914,218.887c-.124,2.876-.221,5.76-.221,8.667,0,1.546.081,3.071.115,4.608L334.879,26.094C333.342,26.06,331.814,25.976,330.268,25.976ZM218.281,59.945l-55.622,55.622a201.511,201.511,0,0,0-16.29,29.463L247.744,43.654A200.925,200.925,0,0,0,218.281,59.945Zm62.646-27.861L134.8,178.21q-2.059,8.17-3.419,16.592L297.519,28.665Q289.1,30.039,280.927,32.084ZM432.882,54.06l-276.1,276.108q2.441,4.113,5.068,8.1L440.987,59.131Q437,56.5,432.882,54.06Zm-38.26,364.513L521.29,291.9q3.037-9.022,5.229-18.405l-150.3,150.306Q385.6,421.616,394.622,418.573Zm-58.364,10.4c4.711-.137,9.39-.385,14.017-.842L530.848,247.558c.457-4.624.708-9.307.845-14.017ZM502.54,332.268l-67.556,67.556A202.628,202.628,0,0,0,502.54,332.268Zm27.442-131.8-226.8,226.8q5.916.8,11.934,1.239l216.1-216.1Q530.771,206.385,529.982,200.469Zm-27.174-77.188L226,400.09q4.122,2.5,8.372,4.8L507.608,131.653Q505.307,127.4,502.807,123.281Zm-14.284-20.5L205.5,385.806q3.689,2.916,7.515,5.658L494.181,110.3Q491.437,106.469,488.523,102.779Zm26.168,43.406L248.9,411.974q4.607,2.036,9.328,3.844L518.536,155.514Q516.729,150.791,514.691,146.185Zm9.257,25.529L274.431,421.231q5.175,1.491,10.465,2.708L526.653,182.182Q525.437,176.9,523.948,171.714Z" transform="translate(1465.307 3401.024)" fill="#1ba7e0"/>
    <g id="Path_196" data-name="Path 196" transform="translate(1703 3865)" fill="none">
      <path d="M46.5,0A46.5,46.5,0,1,1,0,46.5,46.5,46.5,0,0,1,46.5,0Z" stroke="none"/>
      <path d="M 46.5 20 C 31.88784408569336 20 20 31.88784408569336 20 46.5 C 20 61.11215591430664 31.88784408569336 73 46.5 73 C 61.11215591430664 73 73 61.11215591430664 73 46.5 C 73 31.88784408569336 61.11215591430664 20 46.5 20 M 46.5 0 C 72.18125152587891 0 93 20.81874847412109 93 46.5 C 93 72.18125152587891 72.18125152587891 93 46.5 93 C 20.81874847412109 93 0 72.18125152587891 0 46.5 C 0 20.81874847412109 20.81874847412109 0 46.5 0 Z" stroke="none" fill="#1ba7e0"/>
    </g>
  </g>
</svg>
