<svg xmlns="http://www.w3.org/2000/svg" width="509.082" height="481.143" viewBox="0 0 509.082 481.143">
  <g id="Group_2161" data-name="Group 2161" transform="translate(1083 -562)" opacity="0.31">
    <g id="Group_2159" data-name="Group 2159" transform="translate(-1083 562)">
      <g id="Group_2158" data-name="Group 2158" transform="translate(0 0)">
        <path id="Path_9" data-name="Path 9" d="M17.058,17.374A7.973,7.973,0,1,0,9.085,9.4,7.965,7.965,0,0,0,17.058,17.374Z" transform="translate(171.262 -1.427)" fill="#b7e0ff"/>
        <path id="Path_10" data-name="Path 10" d="M18.5,17.374A7.973,7.973,0,1,0,10.525,9.4,7.965,7.965,0,0,0,18.5,17.374Z" transform="translate(201.107 -1.427)" fill="#b7e0ff"/>
        <path id="Path_11" data-name="Path 11" d="M19.938,17.374A7.973,7.973,0,1,0,11.965,9.4,7.965,7.965,0,0,0,19.938,17.374Z" transform="translate(230.953 -1.427)" fill="#b7e0ff"/>
        <path id="Path_12" data-name="Path 12" d="M13.938,2.134a.171.171,0,0,0,.174-.174.174.174,0,1,0-.348,0A.171.171,0,0,0,13.938,2.134Z" transform="translate(268.239 6.014)" fill="#b7e0ff"/>
        <path id="Path_13" data-name="Path 13" d="M22.736,17.2a7.887,7.887,0,1,0-7.887-7.887A7.872,7.872,0,0,0,22.736,17.2Z" transform="translate(290.726 -1.344)" fill="#b7e0ff"/>
        <path id="Path_14" data-name="Path 14" d="M21.191,11.133a4.78,4.78,0,1,0-4.758-4.78A4.794,4.794,0,0,0,21.191,11.133Z" transform="translate(323.556 1.62)" fill="#b7e0ff"/>
        <path id="Path_15" data-name="Path 15" d="M19.253,4.171a1.2,1.2,0,0,0,1.195-1.217,1.2,1.2,0,0,0-1.195-1.217,1.217,1.217,0,1,0,0,2.433Z" transform="translate(356.78 5.019)" fill="#b7e0ff"/>
        <path id="Path_16" data-name="Path 16" d="M12.656,18.666a7.9,7.9,0,1,0-7.887-7.908A7.891,7.891,0,0,0,12.656,18.666Z" transform="translate(81.809 28.501)" fill="#b7e0ff"/>
        <path id="Path_17" data-name="Path 17" d="M8.4,6.97A1.912,1.912,0,1,0,6.484,5.058,1.915,1.915,0,0,0,8.4,6.97Z" transform="translate(117.354 34.201)" fill="#b7e0ff"/>
        <path id="Path_18" data-name="Path 18" d="M12.219,11.894a4.432,4.432,0,1,0-4.41-4.432A4.423,4.423,0,0,0,12.219,11.894Z" transform="translate(144.816 31.797)" fill="#b7e0ff"/>
        <path id="Path_19" data-name="Path 19" d="M17.058,18.836a7.984,7.984,0,1,0-7.973-8A7.983,7.983,0,0,0,17.058,18.836Z" transform="translate(171.262 28.418)" fill="#b7e0ff"/>
        <path id="Path_20" data-name="Path 20" d="M11.8,5.1a.956.956,0,0,0,0-1.912.956.956,0,1,0,0,1.912Z" transform="translate(207.802 35.113)" fill="#b7e0ff"/>
        <path id="Path_21" data-name="Path 21" d="M14.073,6.778a1.817,1.817,0,0,0,1.825-1.8,1.825,1.825,0,0,0-3.65,0A1.817,1.817,0,0,0,14.073,6.778Z" transform="translate(236.818 34.284)" fill="#b7e0ff"/>
        <path id="Path_22" data-name="Path 22" d="M14.021,3.743a.28.28,0,0,0,.261-.261.261.261,0,0,0-.521,0A.28.28,0,0,0,14.021,3.743Z" transform="translate(268.156 35.776)" fill="#b7e0ff"/>
        <path id="Path_23" data-name="Path 23" d="M17.45,7.819A2.346,2.346,0,1,0,15.1,5.472,2.337,2.337,0,0,0,17.45,7.819Z" transform="translate(296.011 33.786)" fill="#b7e0ff"/>
        <path id="Path_24" data-name="Path 24" d="M22.849,15.927a6.5,6.5,0,1,0-6.5-6.5A6.5,6.5,0,0,0,22.849,15.927Z" transform="translate(321.898 29.828)" fill="#b7e0ff"/>
        <path id="Path_25" data-name="Path 25" d="M19.418,5.951a1.39,1.39,0,1,0-1.39-1.39A1.386,1.386,0,0,0,19.418,5.951Z" transform="translate(356.614 34.698)" fill="#b7e0ff"/>
        <path id="Path_26" data-name="Path 26" d="M19.947,4.083a.435.435,0,1,0,0-.869.435.435,0,1,0,0,.869Z" transform="translate(387.371 35.61)" fill="#b7e0ff"/>
        <path id="Path_27" data-name="Path 27" d="M3.413,7.03A1.2,1.2,0,0,0,4.629,5.835a1.217,1.217,0,0,0-2.433,0A1.2,1.2,0,0,0,3.413,7.03Z" transform="translate(28.481 64.709)" fill="#b7e0ff"/>
        <path id="Path_28" data-name="Path 28" d="M9.671,14.013a4.78,4.78,0,1,0-4.758-4.78A4.794,4.794,0,0,0,9.671,14.013Z" transform="translate(84.793 61.31)" fill="#b7e0ff"/>
        <path id="Path_29" data-name="Path 29" d="M12.6,17.049a6.333,6.333,0,1,0-6.322-6.344A6.333,6.333,0,0,0,12.6,17.049Z" transform="translate(113.146 59.839)" fill="#b7e0ff"/>
        <path id="Path_30" data-name="Path 30" d="M12.634,14.161A4.856,4.856,0,1,0,7.789,9.317,4.84,4.84,0,0,0,12.634,14.161Z" transform="translate(144.401 61.227)" fill="#b7e0ff"/>
        <path id="Path_31" data-name="Path 31" d="M19.628,25.518A10.667,10.667,0,1,0,8.961,14.85,10.672,10.672,0,0,0,19.628,25.518Z" transform="translate(168.692 55.694)" fill="#b7e0ff"/>
        <path id="Path_32" data-name="Path 32" d="M22.395,28.235A12.058,12.058,0,1,0,10.337,16.177,12.058,12.058,0,0,0,22.395,28.235Z" transform="translate(197.211 54.367)" fill="#b7e0ff"/>
        <circle id="Ellipse_1" data-name="Ellipse 1" cx="8.153" cy="8.153" r="8.153" transform="translate(242.738 62.388)" fill="#b7e0ff"/>
        <path id="Path_33" data-name="Path 33" d="M21.544,20.593A8.147,8.147,0,1,0,13.4,12.446,8.136,8.136,0,0,0,21.544,20.593Z" transform="translate(260.632 58.098)" fill="#b7e0ff"/>
        <path id="Path_34" data-name="Path 34" d="M17.45,9.259A2.346,2.346,0,1,0,15.1,6.912,2.35,2.35,0,0,0,17.45,9.259Z" transform="translate(296.011 63.632)" fill="#b7e0ff"/>
        <circle id="Ellipse_2" data-name="Ellipse 2" cx="2.079" cy="2.079" r="2.079" transform="translate(342.674 68.461)" fill="#b7e0ff"/>
        <path id="Path_35" data-name="Path 35" d="M28.206,25.348A10.581,10.581,0,1,0,17.6,14.768,10.58,10.58,0,0,0,28.206,25.348Z" transform="translate(347.826 55.777)" fill="#b7e0ff"/>
        <path id="Path_36" data-name="Path 36" d="M20.858,7.391A1.39,1.39,0,1,0,19.468,6,1.4,1.4,0,0,0,20.858,7.391Z" transform="translate(386.459 64.544)" fill="#b7e0ff"/>
        <path id="Path_37" data-name="Path 37" d="M2.667,6.963a.435.435,0,1,0-.435-.435A.436.436,0,0,0,2.667,6.963Z" transform="translate(29.227 95.301)" fill="#b7e0ff"/>
        <path id="Path_38" data-name="Path 38" d="M6.1,11.017a2.509,2.509,0,1,0-2.52-2.5A2.5,2.5,0,0,0,6.1,11.017Z" transform="translate(57.083 93.311)" fill="#b7e0ff"/>
        <path id="Path_39" data-name="Path 39" d="M11,18.149A6.159,6.159,0,1,0,4.849,12,6.147,6.147,0,0,0,11,18.149Z" transform="translate(83.467 89.829)" fill="#b7e0ff"/>
        <path id="Path_40" data-name="Path 40" d="M15.588,24.581A9.451,9.451,0,1,0,6.137,15.13,9.444,9.444,0,0,0,15.588,24.581Z" transform="translate(110.162 86.7)" fill="#b7e0ff"/>
        <path id="Path_41" data-name="Path 41" d="M15.867,22.224A8.245,8.245,0,1,0,7.633,13.99,8.229,8.229,0,0,0,15.867,22.224Z" transform="translate(141.168 87.84)" fill="#b7e0ff"/>
        <path id="Path_42" data-name="Path 42" d="M15.815,19.168a6.681,6.681,0,1,0-6.67-6.692A6.676,6.676,0,0,0,15.815,19.168Z" transform="translate(172.506 89.353)" fill="#b7e0ff"/>
        <path id="Path_43" data-name="Path 43" d="M20.986,26.81a10.591,10.591,0,1,0-10.581-10.6A10.6,10.6,0,0,0,20.986,26.81Z" transform="translate(198.62 85.622)" fill="#b7e0ff"/>
        <path id="Path_44" data-name="Path 44" d="M22.26,26.448A10.407,10.407,0,1,0,11.853,16.042,10.394,10.394,0,0,0,22.26,26.448Z" transform="translate(228.631 85.788)" fill="#b7e0ff"/>
        <path id="Path_45" data-name="Path 45" d="M21.71,22.394a8.332,8.332,0,1,0-8.321-8.321A8.322,8.322,0,0,0,21.71,22.394Z" transform="translate(260.466 87.757)" fill="#b7e0ff"/>
        <path id="Path_46" data-name="Path 46" d="M24.974,26.109A10.233,10.233,0,1,0,14.741,15.876,10.241,10.241,0,0,0,24.974,26.109Z" transform="translate(288.488 85.954)" fill="#b7e0ff"/>
        <path id="Path_47" data-name="Path 47" d="M23.533,20.186A7.2,7.2,0,1,0,16.32,13,7.186,7.186,0,0,0,23.533,20.186Z" transform="translate(321.214 88.834)" fill="#b7e0ff"/>
        <path id="Path_48" data-name="Path 48" d="M22.134,14.435A4.258,4.258,0,1,0,17.9,10.176,4.265,4.265,0,0,0,22.134,14.435Z" transform="translate(353.899 91.653)" fill="#b7e0ff"/>
        <path id="Path_49" data-name="Path 49" d="M20.2,7.472a.7.7,0,0,0,.717-.7.706.706,0,0,0-1.412,0A.7.7,0,0,0,20.2,7.472Z" transform="translate(387.123 95.052)" fill="#b7e0ff"/>
        <path id="Path_50" data-name="Path 50" d="M22.3,8.831a1.39,1.39,0,1,0-1.39-1.39A1.386,1.386,0,0,0,22.3,8.831Z" transform="translate(416.305 94.389)" fill="#b7e0ff"/>
        <path id="Path_51" data-name="Path 51" d="M3.578,10.271a1.39,1.39,0,1,0-1.39-1.39A1.4,1.4,0,0,0,3.578,10.271Z" transform="translate(28.315 124.234)" fill="#b7e0ff"/>
        <path id="Path_52" data-name="Path 52" d="M6.594,13.476a3.031,3.031,0,1,0-3.042-3.02A3.032,3.032,0,0,0,6.594,13.476Z" transform="translate(56.585 122.659)" fill="#b7e0ff"/>
        <path id="Path_53" data-name="Path 53" d="M9.754,17.042A4.856,4.856,0,1,0,4.909,12.2,4.835,4.835,0,0,0,9.754,17.042Z" transform="translate(84.71 120.918)" fill="#b7e0ff"/>
        <path id="Path_54" data-name="Path 54" d="M9.059,12.628A2.6,2.6,0,1,0,6.452,10.02,2.615,2.615,0,0,0,9.059,12.628Z" transform="translate(116.691 123.094)" fill="#b7e0ff"/>
        <path id="Path_55" data-name="Path 55" d="M13.4,18.549a5.627,5.627,0,1,0-5.649-5.627A5.628,5.628,0,0,0,13.4,18.549Z" transform="translate(143.634 120.193)" fill="#b7e0ff"/>
        <path id="Path_56" data-name="Path 56" d="M19.131,27.379A10.146,10.146,0,1,0,8.985,17.233,10.13,10.13,0,0,0,19.131,27.379Z" transform="translate(169.189 115.882)" fill="#b7e0ff"/>
        <path id="Path_57" data-name="Path 57" d="M20.9,28.058A10.494,10.494,0,1,0,10.409,17.565,10.487,10.487,0,0,0,20.9,28.058Z" transform="translate(198.703 115.55)" fill="#b7e0ff"/>
        <path id="Path_58" data-name="Path 58" d="M22.426,28.228A10.581,10.581,0,1,0,11.845,17.648,10.58,10.58,0,0,0,22.426,28.228Z" transform="translate(228.466 115.467)" fill="#b7e0ff"/>
        <path id="Path_59" data-name="Path 59" d="M22.788,26.021a9.451,9.451,0,1,0-9.451-9.451A9.43,9.43,0,0,0,22.788,26.021Z" transform="translate(259.389 116.545)" fill="#b7e0ff"/>
        <path id="Path_60" data-name="Path 60" d="M23.337,24.153a8.495,8.495,0,1,0-8.517-8.495A8.479,8.479,0,0,0,23.337,24.153Z" transform="translate(290.125 117.457)" fill="#b7e0ff"/>
        <path id="Path_61" data-name="Path 61" d="M19.8,14.007a3.3,3.3,0,1,0-3.3-3.3A3.3,3.3,0,0,0,19.8,14.007Z" transform="translate(324.945 122.41)" fill="#b7e0ff"/>
        <circle id="Ellipse_3" data-name="Ellipse 3" cx="7.893" cy="7.893" r="7.893" transform="translate(368.135 125.216)" fill="#b7e0ff"/>
        <path id="Path_62" data-name="Path 62" d="M21.667,11.969a2.26,2.26,0,1,0-2.238-2.26A2.258,2.258,0,0,0,21.667,11.969Z" transform="translate(385.651 123.405)" fill="#b7e0ff"/>
        <path id="Path_63" data-name="Path 63" d="M31.066,28.228A10.581,10.581,0,1,0,20.485,17.648,10.58,10.58,0,0,0,31.066,28.228Z" transform="translate(407.538 115.467)" fill="#b7e0ff"/>
        <path id="Path_64" data-name="Path 64" d="M23.573,9.931a1.217,1.217,0,1,0-1.217-1.217A1.215,1.215,0,0,0,23.573,9.931Z" transform="translate(446.316 124.4)" fill="#b7e0ff"/>
        <path id="Path_65" data-name="Path 65" d="M5.983,16.635a3.911,3.911,0,1,0-3.911-3.911A3.908,3.908,0,0,0,5.983,16.635Z" transform="translate(25.911 151.675)" fill="#b7e0ff"/>
        <path id="Path_66" data-name="Path 66" d="M6.925,15.595a3.378,3.378,0,1,0-3.389-3.368A3.375,3.375,0,0,0,6.925,15.595Z" transform="translate(56.254 152.173)" fill="#b7e0ff"/>
        <path id="Path_67" data-name="Path 67" d="M12.656,24.4a7.887,7.887,0,1,0-7.887-7.887A7.886,7.886,0,0,0,12.656,24.4Z" transform="translate(81.809 147.883)" fill="#b7e0ff"/>
        <path id="Path_68" data-name="Path 68" d="M9.888,15.765A3.465,3.465,0,1,0,6.412,12.31,3.468,3.468,0,0,0,9.888,15.765Z" transform="translate(115.862 152.09)" fill="#b7e0ff"/>
        <path id="Path_69" data-name="Path 69" d="M12.572,18.333a4.78,4.78,0,1,0-4.78-4.78A4.775,4.775,0,0,0,12.572,18.333Z" transform="translate(144.463 150.846)" fill="#b7e0ff"/>
        <path id="Path_70" data-name="Path 70" d="M15.566,21.538a6.42,6.42,0,1,0-6.409-6.409A6.426,6.426,0,0,0,15.566,21.538Z" transform="translate(172.754 149.271)" fill="#b7e0ff"/>
        <circle id="Ellipse_4" data-name="Ellipse 4" cx="8.932" cy="8.932" r="8.932" transform="translate(210.676 155.471)" fill="#b7e0ff"/>
        <path id="Path_71" data-name="Path 71" d="M20.353,25.444a8.419,8.419,0,1,0-8.408-8.408A8.4,8.4,0,0,0,20.353,25.444Z" transform="translate(230.538 147.364)" fill="#b7e0ff"/>
        <path id="Path_72" data-name="Path 72" d="M20.384,22.536a6.931,6.931,0,1,0-6.931-6.931A6.94,6.94,0,0,0,20.384,22.536Z" transform="translate(261.793 148.795)" fill="#b7e0ff"/>
        <path id="Path_73" data-name="Path 73" d="M21.824,22.536a6.931,6.931,0,1,0-6.931-6.931A6.908,6.908,0,0,0,21.824,22.536Z" transform="translate(291.638 148.795)" fill="#b7e0ff"/>
        <circle id="Ellipse_5" data-name="Ellipse 5" cx="4.074" cy="4.074" r="4.074" transform="translate(340.68 160.33)" fill="#b7e0ff"/>
        <path id="Path_74" data-name="Path 74" d="M24.04,21.178A6.235,6.235,0,1,0,17.8,14.942,6.24,6.24,0,0,0,24.04,21.178Z" transform="translate(351.992 149.458)" fill="#b7e0ff"/>
        <path id="Path_75" data-name="Path 75" d="M24.154,18.483a4.856,4.856,0,1,0,0-9.712,4.856,4.856,0,0,0,0,9.712Z" transform="translate(383.164 150.784)" fill="#b7e0ff"/>
        <path id="Path_76" data-name="Path 76" d="M26.837,21.008a6.148,6.148,0,1,0-6.148-6.148A6.161,6.161,0,0,0,26.837,21.008Z" transform="translate(411.766 149.541)" fill="#b7e0ff"/>
        <circle id="Ellipse_6" data-name="Ellipse 6" cx="4.774" cy="4.774" r="4.774" transform="translate(465.117 159.63)" fill="#b7e0ff"/>
        <path id="Path_77" data-name="Path 77" d="M11.268,28.9A9.451,9.451,0,1,0,1.817,19.45,9.43,9.43,0,0,0,11.268,28.9Z" transform="translate(20.626 176.236)" fill="#b7e0ff"/>
        <path id="Path_78" data-name="Path 78" d="M12.625,28.731a9.364,9.364,0,1,0-9.364-9.364A9.365,9.365,0,0,0,12.625,28.731Z" transform="translate(50.554 176.319)" fill="#b7e0ff"/>
        <path id="Path_79" data-name="Path 79" d="M11.08,22.66A6.257,6.257,0,1,0,4.845,16.4,6.24,6.24,0,0,0,11.08,22.66Z" transform="translate(83.384 179.282)" fill="#b7e0ff"/>
        <path id="Path_80" data-name="Path 80" d="M10.22,17.863a3.8,3.8,0,1,0-3.824-3.8A3.811,3.811,0,0,0,10.22,17.863Z" transform="translate(115.53 181.624)" fill="#b7e0ff"/>
        <path id="Path_81" data-name="Path 81" d="M12.406,19.391A4.584,4.584,0,1,0,7.8,14.807,4.59,4.59,0,0,0,12.406,19.391Z" transform="translate(144.629 180.878)" fill="#b7e0ff"/>
        <circle id="Ellipse_7" data-name="Ellipse 7" cx="4.858" cy="4.858" r="4.858" transform="translate(183.465 190.819)" fill="#b7e0ff"/>
        <path id="Path_82" data-name="Path 82" d="M17.586,24.188a7.039,7.039,0,1,0-7.017-7.039A7.033,7.033,0,0,0,17.586,24.188Z" transform="translate(202.019 178.536)" fill="#b7e0ff"/>
        <path id="Path_83" data-name="Path 83" d="M19.192,24.528A7.213,7.213,0,1,0,12,17.315,7.223,7.223,0,0,0,19.192,24.528Z" transform="translate(231.699 178.37)" fill="#b7e0ff"/>
        <path id="Path_84" data-name="Path 84" d="M22.871,29.07a9.538,9.538,0,1,0-9.538-9.538A9.523,9.523,0,0,0,22.871,29.07Z" transform="translate(259.306 176.153)" fill="#b7e0ff"/>
        <path id="Path_85" data-name="Path 85" d="M23.482,27.372A8.669,8.669,0,1,0,14.813,18.7,8.665,8.665,0,0,0,23.482,27.372Z" transform="translate(289.98 176.982)" fill="#b7e0ff"/>
        <path id="Path_86" data-name="Path 86" d="M24.093,25.695a7.81,7.81,0,1,0-7.8-7.8A7.8,7.8,0,0,0,24.093,25.695Z" transform="translate(320.655 177.79)" fill="#b7e0ff"/>
        <path id="Path_87" data-name="Path 87" d="M24.952,24.528a7.213,7.213,0,1,0-7.191-7.213A7.223,7.223,0,0,0,24.952,24.528Z" transform="translate(351.08 178.37)" fill="#b7e0ff"/>
        <path id="Path_88" data-name="Path 88" d="M20.941,13.321a1.477,1.477,0,1,0-1.477-1.477A1.479,1.479,0,0,0,20.941,13.321Z" transform="translate(386.376 183.842)" fill="#b7e0ff"/>
        <path id="Path_89" data-name="Path 89" d="M23.21,15.019a2.346,2.346,0,0,0,0-4.693,2.346,2.346,0,0,0,0,4.693Z" transform="translate(415.393 183.013)" fill="#b7e0ff"/>
        <path id="Path_90" data-name="Path 90" d="M26.972,19.731a4.758,4.758,0,1,0-4.78-4.758A4.761,4.761,0,0,0,26.972,19.731Z" transform="translate(442.917 180.713)" fill="#b7e0ff"/>
        <path id="Path_91" data-name="Path 91" d="M31.4,25.865a7.9,7.9,0,1,0-7.908-7.887A7.891,7.891,0,0,0,31.4,25.865Z" transform="translate(469.778 177.707)" fill="#b7e0ff"/>
        <path id="Path_92" data-name="Path 92" d="M12.346,32.548A10.581,10.581,0,1,0,1.765,21.968,10.566,10.566,0,0,0,12.346,32.548Z" transform="translate(19.548 205.003)" fill="#b7e0ff"/>
        <path id="Path_93" data-name="Path 93" d="M7.734,20.152A4.237,4.237,0,1,0,3.5,15.916,4.247,4.247,0,0,0,7.734,20.152Z" transform="translate(55.445 211.055)" fill="#b7e0ff"/>
        <path id="Path_94" data-name="Path 94" d="M10.085,22.02a5.192,5.192,0,1,0-5.192-5.193A5.2,5.2,0,0,0,10.085,22.02Z" transform="translate(84.379 210.143)" fill="#b7e0ff"/>
        <path id="Path_95" data-name="Path 95" d="M16.914,33.057A10.841,10.841,0,1,0,6.073,22.216,10.844,10.844,0,0,0,16.914,33.057Z" transform="translate(108.835 204.755)" fill="#b7e0ff"/>
        <path id="Path_96" data-name="Path 96" d="M15.7,27.624a8.06,8.06,0,1,0-8.06-8.06A8.057,8.057,0,0,0,15.7,27.624Z" transform="translate(141.334 207.408)" fill="#b7e0ff"/>
        <path id="Path_97" data-name="Path 97" d="M17.722,28.812a8.669,8.669,0,1,0-8.669-8.669A8.651,8.651,0,0,0,17.722,28.812Z" transform="translate(170.599 206.827)" fill="#b7e0ff"/>
        <path id="Path_98" data-name="Path 98" d="M19.327,29.152a8.842,8.842,0,1,0-8.842-8.842A8.836,8.836,0,0,0,19.327,29.152Z" transform="translate(200.278 206.661)" fill="#b7e0ff"/>
        <circle id="Ellipse_8" data-name="Ellipse 8" cx="6.158" cy="6.158" r="6.158" transform="translate(244.733 220.813)" fill="#b7e0ff"/>
        <path id="Path_99" data-name="Path 99" d="M20.653,25.926a7.191,7.191,0,1,0-7.213-7.191A7.186,7.186,0,0,0,20.653,25.926Z" transform="translate(261.523 208.237)" fill="#b7e0ff"/>
        <path id="Path_100" data-name="Path 100" d="M23.233,28.345a8.43,8.43,0,1,0-8.408-8.43A8.438,8.438,0,0,0,23.233,28.345Z" transform="translate(290.229 207.055)" fill="#b7e0ff"/>
        <path id="Path_101" data-name="Path 101" d="M24.093,27.114a7.8,7.8,0,1,0-7.8-7.8A7.812,7.812,0,0,0,24.093,27.114Z" transform="translate(320.655 207.656)" fill="#b7e0ff"/>
        <path id="Path_102" data-name="Path 102" d="M26.279,28.664a8.593,8.593,0,1,0-8.582-8.6A8.591,8.591,0,0,0,26.279,28.664Z" transform="translate(349.754 206.91)" fill="#b7e0ff"/>
        <path id="Path_103" data-name="Path 103" d="M28.8,30.85a9.711,9.711,0,1,0-9.712-9.712A9.708,9.708,0,0,0,28.8,30.85Z" transform="translate(378.521 205.832)" fill="#b7e0ff"/>
        <path id="Path_104" data-name="Path 104" d="M21.8,13.572a.869.869,0,1,0-.869-.869A.872.872,0,0,0,21.8,13.572Z" transform="translate(416.802 214.268)" fill="#b7e0ff"/>
        <circle id="Ellipse_9" data-name="Ellipse 9" cx="2.333" cy="2.333" r="2.333" transform="translate(467.557 224.637)" fill="#b7e0ff"/>
        <path id="Path_105" data-name="Path 105" d="M1.392,14.5A.607.607,0,0,0,2,13.894a.594.594,0,0,0-.608-.608.594.594,0,0,0-.608.608A.607.607,0,0,0,1.392,14.5Z" transform="translate(-0.784 244.362)" fill="#b7e0ff"/>
        <path id="Path_106" data-name="Path 106" d="M6.1,18.238a2.52,2.52,0,1,0-2.52-2.52A2.522,2.522,0,0,0,6.1,18.238Z" transform="translate(57.083 242.538)" fill="#b7e0ff"/>
        <path id="Path_107" data-name="Path 107" d="M14.4,32.311A9.722,9.722,0,1,0,4.685,22.6,9.722,9.722,0,0,0,14.4,32.311Z" transform="translate(80.068 235.657)" fill="#b7e0ff"/>
        <path id="Path_108" data-name="Path 108" d="M15.588,31.781A9.451,9.451,0,1,0,6.137,22.33,9.43,9.43,0,0,0,15.588,31.781Z" transform="translate(110.162 235.926)" fill="#b7e0ff"/>
        <path id="Path_109" data-name="Path 109" d="M14.624,26.877a6.941,6.941,0,1,0-6.931-6.931A6.954,6.954,0,0,0,14.624,26.877Z" transform="translate(142.411 238.31)" fill="#b7e0ff"/>
        <path id="Path_110" data-name="Path 110" d="M17.473,29.743a8.408,8.408,0,1,0-8.408-8.408A8.414,8.414,0,0,0,17.473,29.743Z" transform="translate(170.847 236.921)" fill="#b7e0ff"/>
        <path id="Path_111" data-name="Path 111" d="M17.773,27.408A7.213,7.213,0,1,0,10.56,20.2,7.223,7.223,0,0,0,17.773,27.408Z" transform="translate(201.833 238.061)" fill="#b7e0ff"/>
        <path id="Path_112" data-name="Path 112" d="M18.218,25.37a6.17,6.17,0,1,0-6.17-6.17A6.166,6.166,0,0,0,18.218,25.37Z" transform="translate(232.673 239.056)" fill="#b7e0ff"/>
        <path id="Path_113" data-name="Path 113" d="M21.482,29.084a8.071,8.071,0,1,0-8.082-8.06A8.062,8.062,0,0,0,21.482,29.084Z" transform="translate(260.694 237.232)" fill="#b7e0ff"/>
        <path id="Path_114" data-name="Path 114" d="M22.155,27.535a7.278,7.278,0,1,0-7.278-7.278A7.3,7.3,0,0,0,22.155,27.535Z" transform="translate(291.307 237.999)" fill="#b7e0ff"/>
        <path id="Path_115" data-name="Path 115" d="M25.253,30.931a9.016,9.016,0,1,0-9.016-8.995A8.989,8.989,0,0,0,25.253,30.931Z" transform="translate(319.494 236.32)" fill="#b7e0ff"/>
        <path id="Path_116" data-name="Path 116" d="M28.02,33.648A10.407,10.407,0,1,0,17.613,23.242,10.422,10.422,0,0,0,28.02,33.648Z" transform="translate(348.013 235.014)" fill="#b7e0ff"/>
        <path id="Path_117" data-name="Path 117" d="M29.626,33.988a10.581,10.581,0,1,0-10.58-10.581A10.6,10.6,0,0,0,29.626,33.988Z" transform="translate(377.692 234.849)" fill="#b7e0ff"/>
        <path id="Path_118" data-name="Path 118" d="M22.464,16.371A1.564,1.564,0,1,0,20.9,14.806,1.572,1.572,0,0,0,22.464,16.371Z" transform="translate(416.139 243.45)" fill="#b7e0ff"/>
        <path id="Path_119" data-name="Path 119" d="M22.723,13.993a.357.357,0,0,0,.348-.348.343.343,0,0,0-.348-.348.326.326,0,0,0-.326.348A.338.338,0,0,0,22.723,13.993Z" transform="translate(447.166 244.611)" fill="#b7e0ff"/>
        <path id="Path_120" data-name="Path 120" d="M3.413,17.131a1.229,1.229,0,0,0,1.217-1.217,1.217,1.217,0,1,0-2.433,0A1.229,1.229,0,0,0,3.413,17.131Z" transform="translate(28.481 273.627)" fill="#b7e0ff"/>
        <path id="Path_121" data-name="Path 121" d="M14.532,36.955A11.363,11.363,0,1,0,3.169,25.614,11.34,11.34,0,0,0,14.532,36.955Z" transform="translate(48.647 263.927)" fill="#b7e0ff"/>
        <path id="Path_122" data-name="Path 122" d="M14.4,33.73a9.711,9.711,0,1,0-9.711-9.712A9.708,9.708,0,0,0,14.4,33.73Z" transform="translate(80.068 265.523)" fill="#b7e0ff"/>
        <path id="Path_123" data-name="Path 123" d="M14.925,31.862a8.756,8.756,0,1,0-8.756-8.756A8.744,8.744,0,0,0,14.925,31.862Z" transform="translate(110.825 266.435)" fill="#b7e0ff"/>
        <path id="Path_124" data-name="Path 124" d="M16.613,32.372A9.016,9.016,0,1,0,7.6,23.355,9.022,9.022,0,0,0,16.613,32.372Z" transform="translate(140.422 266.186)" fill="#b7e0ff"/>
        <path id="Path_125" data-name="Path 125" d="M19.048,34.409A10.059,10.059,0,1,0,8.989,24.35,10.051,10.051,0,0,0,19.048,34.409Z" transform="translate(169.272 265.191)" fill="#b7e0ff"/>
        <path id="Path_126" data-name="Path 126" d="M18.167,29.675a7.637,7.637,0,1,0-7.626-7.626A7.622,7.622,0,0,0,18.167,29.675Z" transform="translate(201.439 267.492)" fill="#b7e0ff"/>
        <path id="Path_127" data-name="Path 127" d="M18.529,27.468a6.507,6.507,0,1,0-6.5-6.5A6.486,6.486,0,0,0,18.529,27.468Z" transform="translate(232.362 268.57)" fill="#b7e0ff"/>
        <path id="Path_128" data-name="Path 128" d="M21.047,29.675a7.637,7.637,0,1,0-7.626-7.626A7.622,7.622,0,0,0,21.047,29.675Z" transform="translate(261.13 267.492)" fill="#b7e0ff"/>
        <circle id="Ellipse_10" data-name="Ellipse 10" cx="8.847" cy="8.847" r="8.847" transform="translate(304.613 280.693)" fill="#b7e0ff"/>
        <path id="Path_129" data-name="Path 129" d="M26.331,34.579A10.146,10.146,0,1,0,16.185,24.433,10.144,10.144,0,0,0,26.331,34.579Z" transform="translate(318.416 265.108)" fill="#b7e0ff"/>
        <circle id="Ellipse_11" data-name="Ellipse 11" cx="10.926" cy="10.926" r="10.926" transform="translate(365.102 278.613)" fill="#b7e0ff"/>
        <path id="Path_130" data-name="Path 130" d="M28.631,33.39a9.538,9.538,0,1,0-9.538-9.538A9.569,9.569,0,0,0,28.631,33.39Z" transform="translate(378.687 265.689)" fill="#b7e0ff"/>
        <path id="Path_131" data-name="Path 131" d="M29.159,31.543a8.593,8.593,0,1,0-8.582-8.582A8.586,8.586,0,0,0,29.159,31.543Z" transform="translate(409.444 266.58)" fill="#b7e0ff"/>
        <circle id="Ellipse_12" data-name="Ellipse 12" cx="7.978" cy="7.978" r="7.978" transform="translate(461.913 281.562)" fill="#b7e0ff"/>
        <path id="Path_132" data-name="Path 132" d="M11.434,35a9.625,9.625,0,1,0-9.625-9.646A9.62,9.62,0,0,0,11.434,35Z" transform="translate(20.46 295.451)" fill="#b7e0ff"/>
        <path id="Path_133" data-name="Path 133" d="M4.853,18.571a1.217,1.217,0,1,0-1.217-1.238A1.22,1.22,0,0,0,4.853,18.571Z" transform="translate(58.326 303.472)" fill="#b7e0ff"/>
        <path id="Path_134" data-name="Path 134" d="M14.314,35a9.625,9.625,0,1,0-9.625-9.646A9.62,9.62,0,0,0,14.314,35Z" transform="translate(80.151 295.451)" fill="#b7e0ff"/>
        <path id="Path_135" data-name="Path 135" d="M14.593,32.623a8.408,8.408,0,1,0-8.408-8.43A8.405,8.405,0,0,0,14.593,32.623Z" transform="translate(111.157 296.612)" fill="#b7e0ff"/>
        <path id="Path_136" data-name="Path 136" d="M18.437,37.568A10.939,10.939,0,1,0,7.509,26.618,10.927,10.927,0,0,0,18.437,37.568Z" transform="translate(138.598 294.187)" fill="#b7e0ff"/>
        <path id="Path_137" data-name="Path 137" d="M17.97,33.662a8.94,8.94,0,1,0-8.929-8.951A8.934,8.934,0,0,0,17.97,33.662Z" transform="translate(170.35 296.094)" fill="#b7e0ff"/>
        <path id="Path_138" data-name="Path 138" d="M17.5,29.757A6.941,6.941,0,1,0,10.573,22.8,6.94,6.94,0,0,0,17.5,29.757Z" transform="translate(202.102 298.001)" fill="#b7e0ff"/>
        <path id="Path_139" data-name="Path 139" d="M19.441,30.755a7.452,7.452,0,1,0-7.452-7.474A7.441,7.441,0,0,0,19.441,30.755Z" transform="translate(231.45 297.524)" fill="#b7e0ff"/>
        <path id="Path_140" data-name="Path 140" d="M18.062,25a4.508,4.508,0,1,0-4.5-4.519A4.483,4.483,0,0,0,18.062,25Z" transform="translate(264.114 300.322)" fill="#b7e0ff"/>
        <path id="Path_141" data-name="Path 141" d="M18.86,23.623A3.8,3.8,0,1,0,15.036,19.8,3.8,3.8,0,0,0,18.86,23.623Z" transform="translate(294.602 301.006)" fill="#b7e0ff"/>
        <path id="Path_142" data-name="Path 142" d="M26.331,36.019A10.146,10.146,0,1,0,16.185,25.851,10.148,10.148,0,0,0,26.331,36.019Z" transform="translate(318.416 294.954)" fill="#b7e0ff"/>
        <path id="Path_143" data-name="Path 143" d="M24.476,29.227a6.67,6.67,0,1,0-6.692-6.692A6.676,6.676,0,0,0,24.476,29.227Z" transform="translate(351.557 298.27)" fill="#b7e0ff"/>
        <path id="Path_144" data-name="Path 144" d="M29.708,37.038A10.667,10.667,0,1,0,19.041,26.349,10.663,10.663,0,0,0,29.708,37.038Z" transform="translate(377.609 294.456)" fill="#b7e0ff"/>
        <path id="Path_145" data-name="Path 145" d="M22.05,18.4a1.13,1.13,0,1,0-1.13-1.151A1.127,1.127,0,0,0,22.05,18.4Z" transform="translate(416.553 303.555)" fill="#b7e0ff"/>
        <path id="Path_146" data-name="Path 146" d="M24.184,16.873a.362.362,0,0,0,.348-.369.348.348,0,0,0-.7,0A.362.362,0,0,0,24.184,16.873Z" transform="translate(476.99 304.301)" fill="#b7e0ff"/>
        <path id="Path_147" data-name="Path 147" d="M5.071,23.407a2.955,2.955,0,1,0-2.955-2.955A2.958,2.958,0,0,0,5.071,23.407Z" transform="translate(26.823 331.659)" fill="#b7e0ff"/>
        <path id="Path_148" data-name="Path 148" d="M6.1,22.558a2.536,2.536,0,0,0,2.52-2.52,2.52,2.52,0,1,0-5.04,0A2.536,2.536,0,0,0,6.1,22.558Z" transform="translate(57.083 332.074)" fill="#b7e0ff"/>
        <path id="Path_149" data-name="Path 149" d="M8.345,24.235a3.378,3.378,0,1,0-3.368-3.367A3.375,3.375,0,0,0,8.345,24.235Z" transform="translate(86.12 331.245)" fill="#b7e0ff"/>
        <path id="Path_150" data-name="Path 150" d="M16.085,37.119a9.972,9.972,0,1,0-9.972-9.972A9.958,9.958,0,0,0,16.085,37.119Z" transform="translate(109.664 324.965)" fill="#b7e0ff"/>
        <path id="Path_151" data-name="Path 151" d="M17.774,37.607A10.222,10.222,0,1,0,7.541,27.4,10.2,10.2,0,0,0,17.774,37.607Z" transform="translate(139.261 324.716)" fill="#b7e0ff"/>
        <circle id="Ellipse_13" data-name="Ellipse 13" cx="8.847" cy="8.847" r="8.847" transform="translate(179.477 343.261)" fill="#b7e0ff"/>
        <path id="Path_152" data-name="Path 152" d="M19.908,36.121a9.462,9.462,0,1,0-9.451-9.451A9.458,9.458,0,0,0,19.908,36.121Z" transform="translate(199.698 325.442)" fill="#b7e0ff"/>
        <path id="Path_153" data-name="Path 153" d="M18.944,31.176a6.931,6.931,0,1,0-6.931-6.931A6.936,6.936,0,0,0,18.944,31.176Z" transform="translate(231.947 327.867)" fill="#b7e0ff"/>
        <path id="Path_154" data-name="Path 154" d="M17.4,25.106a3.824,3.824,0,1,0-3.8-3.824A3.825,3.825,0,0,0,17.4,25.106Z" transform="translate(264.777 330.83)" fill="#b7e0ff"/>
        <path id="Path_155" data-name="Path 155" d="M22.238,32.046a7.376,7.376,0,1,0-7.365-7.365A7.39,7.39,0,0,0,22.238,32.046Z" transform="translate(291.224 327.431)" fill="#b7e0ff"/>
        <path id="Path_156" data-name="Path 156" d="M24.673,34.105a8.43,8.43,0,1,0-8.408-8.43A8.419,8.419,0,0,0,24.673,34.105Z" transform="translate(320.074 326.437)" fill="#b7e0ff"/>
        <path id="Path_157" data-name="Path 157" d="M25.947,33.723a8.234,8.234,0,1,0-8.234-8.234A8.234,8.234,0,0,0,25.947,33.723Z" transform="translate(350.085 326.623)" fill="#b7e0ff"/>
        <path id="Path_158" data-name="Path 158" d="M20.672,20.011a1.217,1.217,0,0,0,0-2.433,1.217,1.217,0,0,0,0,2.433Z" transform="translate(386.646 333.318)" fill="#b7e0ff"/>
        <circle id="Ellipse_14" data-name="Ellipse 14" cx="7.978" cy="7.978" r="7.978" transform="translate(430.619 344.13)" fill="#b7e0ff"/>
        <path id="Path_159" data-name="Path 159" d="M6.21,21.282a1.13,1.13,0,0,0,0-2.26,1.13,1.13,0,1,0,0,2.26Z" transform="translate(88.255 363.246)" fill="#b7e0ff"/>
        <path id="Path_160" data-name="Path 160" d="M16.748,39.918A10.667,10.667,0,1,0,6.081,29.25,10.672,10.672,0,0,0,16.748,39.918Z" transform="translate(109.001 354.147)" fill="#b7e0ff"/>
        <path id="Path_161" data-name="Path 161" d="M17.194,37.88a9.625,9.625,0,1,0-9.625-9.625A9.629,9.629,0,0,0,17.194,37.88Z" transform="translate(139.841 355.142)" fill="#b7e0ff"/>
        <path id="Path_162" data-name="Path 162" d="M17.39,35.354a8.332,8.332,0,1,0-8.321-8.321A8.322,8.322,0,0,0,17.39,35.354Z" transform="translate(170.93 356.365)" fill="#b7e0ff"/>
        <path id="Path_163" data-name="Path 163" d="M13.048,23.489a2.259,2.259,0,1,0-2.26-2.26A2.272,2.272,0,0,0,13.048,23.489Z" transform="translate(206.558 362.168)" fill="#b7e0ff"/>
        <path id="Path_164" data-name="Path 164" d="M18.3,31.278a6.246,6.246,0,1,0-6.257-6.235A6.254,6.254,0,0,0,18.3,31.278Z" transform="translate(232.59 358.354)" fill="#b7e0ff"/>
        <path id="Path_165" data-name="Path 165" d="M17.088,25.845a3.465,3.465,0,1,0-3.476-3.454A3.468,3.468,0,0,0,17.088,25.845Z" transform="translate(265.088 361.007)" fill="#b7e0ff"/>
        <path id="Path_166" data-name="Path 166" d="M22.072,33.146a7.2,7.2,0,1,0-7.191-7.191A7.172,7.172,0,0,0,22.072,33.146Z" transform="translate(291.389 357.443)" fill="#b7e0ff"/>
        <path id="Path_167" data-name="Path 167" d="M18.621,23.149a2.086,2.086,0,1,0-2.064-2.086A2.086,2.086,0,0,0,18.621,23.149Z" transform="translate(326.126 362.334)" fill="#b7e0ff"/>
        <path id="Path_168" data-name="Path 168" d="M24.123,31.448A6.333,6.333,0,1,0,17.8,25.126,6.347,6.347,0,0,0,24.123,31.448Z" transform="translate(351.909 358.272)" fill="#b7e0ff"/>
        <path id="Path_169" data-name="Path 169" d="M25.584,31.448a6.333,6.333,0,1,0-6.344-6.322A6.328,6.328,0,0,0,25.584,31.448Z" transform="translate(381.734 358.272)" fill="#b7e0ff"/>
        <path id="Path_170" data-name="Path 170" d="M21.3,19.753a.348.348,0,1,0,0-.7.348.348,0,0,0,0,.7Z" transform="translate(417.299 363.992)" fill="#b7e0ff"/>
        <path id="Path_171" data-name="Path 171" d="M7.536,25.438a2.52,2.52,0,1,0-2.52-2.52A2.522,2.522,0,0,0,7.536,25.438Z" transform="translate(86.928 391.765)" fill="#b7e0ff"/>
        <path id="Path_172" data-name="Path 172" d="M8.313,24.08a1.825,1.825,0,1,0-1.825-1.825A1.836,1.836,0,0,0,8.313,24.08Z" transform="translate(117.437 392.428)" fill="#b7e0ff"/>
        <path id="Path_173" data-name="Path 173" d="M13.815,32.379a6.072,6.072,0,1,0-6.083-6.062A6.069,6.069,0,0,0,13.815,32.379Z" transform="translate(143.22 388.366)" fill="#b7e0ff"/>
        <circle id="Ellipse_15" data-name="Ellipse 15" cx="10.757" cy="10.757" r="10.757" transform="translate(177.567 403.92)" fill="#b7e0ff"/>
        <circle id="Ellipse_16" data-name="Ellipse 16" cx="4.249" cy="4.249" r="4.249" transform="translate(215.359 410.428)" fill="#b7e0ff"/>
        <circle id="Ellipse_17" data-name="Ellipse 17" cx="2.079" cy="2.079" r="2.079" transform="translate(248.812 412.597)" fill="#b7e0ff"/>
        <path id="Path_174" data-name="Path 174" d="M22.7,38.811a9.364,9.364,0,1,0-9.364-9.364A9.351,9.351,0,0,0,22.7,38.811Z" transform="translate(259.472 385.236)" fill="#b7e0ff"/>
        <path id="Path_175" data-name="Path 175" d="M19.855,30a4.856,4.856,0,0,0,0-9.711,4.856,4.856,0,1,0,0,9.711Z" transform="translate(293.607 389.526)" fill="#b7e0ff"/>
        <path id="Path_176" data-name="Path 176" d="M21.191,29.832a4.769,4.769,0,1,0-4.758-4.758A4.775,4.775,0,0,0,21.191,29.832Z" transform="translate(323.556 389.609)" fill="#b7e0ff"/>
        <path id="Path_177" data-name="Path 177" d="M22.652,29.832a4.769,4.769,0,1,0-4.78-4.758A4.757,4.757,0,0,0,22.652,29.832Z" transform="translate(353.381 389.609)" fill="#b7e0ff"/>
        <circle id="Ellipse_18" data-name="Ellipse 18" cx="7.893" cy="7.893" r="7.893" transform="translate(399.429 406.783)" fill="#b7e0ff"/>
        <circle id="Ellipse_19" data-name="Ellipse 19" cx="0.085" cy="0.085" r="0.085" transform="translate(438.512 414.592)" fill="#b7e0ff"/>
        <path id="Path_178" data-name="Path 178" d="M6.9,22.633a.348.348,0,1,0-.348-.348A.343.343,0,0,0,6.9,22.633Z" transform="translate(118.846 423.683)" fill="#b7e0ff"/>
        <path id="Path_179" data-name="Path 179" d="M9.5,24.989A1.553,1.553,0,1,0,7.94,23.446,1.553,1.553,0,0,0,9.5,24.989Z" transform="translate(147.531 422.522)" fill="#b7e0ff"/>
        <path id="Path_180" data-name="Path 180" d="M13.514,30.253a4.247,4.247,0,1,0-4.258-4.237A4.242,4.242,0,0,0,13.514,30.253Z" transform="translate(174.806 419.952)" fill="#b7e0ff"/>
        <path id="Path_181" data-name="Path 181" d="M20.986,42.606A10.57,10.57,0,1,0,10.405,32.048,10.561,10.561,0,0,0,20.986,42.606Z" transform="translate(198.62 413.921)" fill="#b7e0ff"/>
        <path id="Path_182" data-name="Path 182" d="M22.426,42.606A10.57,10.57,0,1,0,11.845,32.048,10.561,10.561,0,0,0,22.426,42.606Z" transform="translate(228.466 413.921)" fill="#b7e0ff"/>
        <path id="Path_183" data-name="Path 183" d="M16.922,28.385a3.291,3.291,0,1,0-3.3-3.281A3.3,3.3,0,0,0,16.922,28.385Z" transform="translate(265.254 420.864)" fill="#b7e0ff"/>
        <path id="Path_184" data-name="Path 184" d="M18.114,27.877a3.031,3.031,0,1,0-3.042-3.042A3.051,3.051,0,0,0,18.114,27.877Z" transform="translate(295.348 421.133)" fill="#b7e0ff"/>
        <path id="Path_185" data-name="Path 185" d="M19.533,27.877a3.031,3.031,0,1,0,0-6.062,3.031,3.031,0,0,0,0,6.062Z" transform="translate(325.214 421.133)" fill="#b7e0ff"/>
        <path id="Path_186" data-name="Path 186" d="M24.04,34.158A6.246,6.246,0,1,0,17.8,27.923,6.254,6.254,0,0,0,24.04,34.158Z" transform="translate(351.992 418.045)" fill="#b7e0ff"/>
        <path id="Path_187" data-name="Path 187" d="M10.032,24.583a.622.622,0,0,0,.608-.608.608.608,0,1,0-1.217,0A.622.622,0,0,0,10.032,24.583Z" transform="translate(178.288 453.279)" fill="#b7e0ff"/>
        <path id="Path_188" data-name="Path 188" d="M18.943,31.014a3.9,3.9,0,1,0-3.911-3.889A3.9,3.9,0,0,0,18.943,31.014Z" transform="translate(294.519 450.129)" fill="#b7e0ff"/>
        <path id="Path_189" data-name="Path 189" d="M17.067,24.243a.435.435,0,1,0-.435-.435A.436.436,0,0,0,17.067,24.243Z" transform="translate(327.681 453.445)" fill="#b7e0ff"/>
        <path id="Path_190" data-name="Path 190" d="M19.253,25.75a1.178,1.178,0,0,0,1.195-1.195,1.2,1.2,0,0,0-1.195-1.217,1.215,1.215,0,0,0-1.217,1.217A1.2,1.2,0,0,0,19.253,25.75Z" transform="translate(356.78 452.699)" fill="#b7e0ff"/>
      </g>
    </g>
  </g>
</svg>
