<svg xmlns="http://www.w3.org/2000/svg" width="42.066" height="31.55" viewBox="0 0 42.066 31.55">
  <g id="Group_2275" data-name="Group 2275" transform="translate(-1450.534 -148.72)">
    <path id="Path_217" data-name="Path 217" d="M38.561,64H3.506A3.509,3.509,0,0,0,0,67.506V92.044A3.509,3.509,0,0,0,3.506,95.55H38.561a3.509,3.509,0,0,0,3.505-3.506V67.506A3.509,3.509,0,0,0,38.561,64Z" transform="translate(1450.534 84.72)" fill="#303c42"/>
    <path id="Path_218" data-name="Path 218" d="M320.322,113.459c4.553-4.14,11.574-10.563,13.9-12.69a1.694,1.694,0,0,1,.1.485v24.539a1.694,1.694,0,0,1-.092.457C331.883,124.015,324.86,117.357,320.322,113.459Z" transform="translate(1156.53 50.972)" fill="#b7e0ff"/>
    <path id="Path_219" data-name="Path 219" d="M73.648,85.333a1.668,1.668,0,0,1,.364.074c-3.035,2.778-13.1,11.984-16.62,15.157a1.758,1.758,0,0,1-2.544,0c-3.521-3.172-13.585-12.379-16.62-15.156a1.675,1.675,0,0,1,.365-.074H73.648Z" transform="translate(1415.446 65.14)" fill="#f1fbff"/>
    <path id="Path_220" data-name="Path 220" d="M21.427,126.251a1.689,1.689,0,0,1-.093-.457V101.255a1.693,1.693,0,0,1,.1-.484c2.323,2.126,9.345,8.55,13.9,12.69C30.791,117.359,23.768,124.018,21.427,126.251Z" transform="translate(1430.953 50.97)" fill="#b7e0ff"/>
    <path id="Path_221" data-name="Path 221" d="M38.252,282.582a1.678,1.678,0,0,1-.4-.08c2.419-2.306,9.488-9,13.946-12.818.581.527,1.112,1.008,1.531,1.385a3.5,3.5,0,0,0,4.891,0c.419-.377.95-.858,1.532-1.386C64.215,273.5,71.283,280.195,73.7,282.5a1.677,1.677,0,0,1-.4.08Z" transform="translate(1415.787 -104.065)" fill="#f1fbff"/>
  </g>
</svg>
