<svg xmlns="http://www.w3.org/2000/svg" width="78.621" height="78.621" viewBox="0 0 78.621 78.621">
  <g id="Group_2289" data-name="Group 2289" transform="translate(1.5 1.5)">
    <g id="Group_2288" data-name="Group 2288">
      <path id="Path_230" data-name="Path 230" d="M71.167,37.833A33.333,33.333,0,1,1,37.833,4.5,33.333,33.333,0,0,1,71.167,37.833Z" transform="translate(-4.5 -4.5)" fill="#fff" opacity="0.47"/>
      <g id="Icon_feather-search" data-name="Icon feather-search">
        <path id="Path_228" data-name="Path 228" d="M71.167,37.833A33.333,33.333,0,1,1,37.833,4.5,33.333,33.333,0,0,1,71.167,37.833Z" transform="translate(-4.5 -4.5)" fill="none" stroke="#646464" stroke-linecap="round" stroke-linejoin="round" stroke-width="3"/>
        <path id="Path_229" data-name="Path 229" d="M43.1,43.1,24.975,24.975" transform="translate(31.9 31.9)" fill="none" stroke="#646464" stroke-linecap="round" stroke-linejoin="round" stroke-width="3"/>
      </g>
    </g>
    <path id="Icon_weather-stars" data-name="Icon weather-stars" d="M6.444,28.807a4.679,4.679,0,0,0,3.277-1.489,4.667,4.667,0,0,0,1.35-3.336,4.818,4.818,0,0,0,4.607,4.826,4.818,4.818,0,0,0-4.607,4.826A4.586,4.586,0,0,0,9.721,30.3,4.679,4.679,0,0,0,6.444,28.807Zm4.627-14.3a9.127,9.127,0,0,0,6.375-2.919,9.09,9.09,0,0,0,2.621-6.514,9.09,9.09,0,0,0,2.621,6.514,9.217,9.217,0,0,0,6.394,2.919,9.2,9.2,0,0,0-4.548,1.41,9.543,9.543,0,0,0-3.277,3.436,9.338,9.338,0,0,0-1.192,4.627,9.136,9.136,0,0,0-2.621-6.533A9.067,9.067,0,0,0,11.071,14.509ZM17.664,35.9a7.093,7.093,0,0,0,6.772-7.089A7.1,7.1,0,0,0,31.188,35.9a7.1,7.1,0,0,0-6.752,7.089,6.839,6.839,0,0,0-1.966-4.905A6.957,6.957,0,0,0,17.664,35.9Zm13.524-9.413a7.06,7.06,0,0,0,6.732-7.109,7.093,7.093,0,0,0,6.772,7.089,7.093,7.093,0,0,0-6.772,7.089,7.024,7.024,0,0,0-6.732-7.07Z" transform="translate(10.408 7.87)" fill="#1ba7e0"/>
  </g>
</svg>
