<svg xmlns="http://www.w3.org/2000/svg" width="49.218" height="49.308" viewBox="0 0 49.218 49.308">
  <path id="Icon_feather-phone-call" data-name="Icon feather-phone-call" d="M32.348,10.521a11.277,11.277,0,0,1,8.909,8.909M32.348,1.5a20.3,20.3,0,0,1,17.93,17.907m-2.255,18v6.766a4.511,4.511,0,0,1-4.917,4.511,44.633,44.633,0,0,1-19.464-6.924A43.979,43.979,0,0,1,10.11,28.226,44.633,44.633,0,0,1,3.186,8.672,4.511,4.511,0,0,1,7.674,3.755H14.44a4.511,4.511,0,0,1,4.511,3.879,28.958,28.958,0,0,0,1.579,6.338,4.511,4.511,0,0,1-1.015,4.759L16.651,21.6A36.086,36.086,0,0,0,30.183,35.127l2.864-2.864a4.511,4.511,0,0,1,4.759-1.015,28.959,28.959,0,0,0,6.338,1.579A4.511,4.511,0,0,1,48.022,37.405Z" transform="translate(-2.166 -0.396)" fill="#b7e0ff" stroke="#172a40" stroke-linecap="round" stroke-linejoin="round" stroke-width="2"/>
</svg>
