<svg xmlns="http://www.w3.org/2000/svg" width="33.003" height="33.041" viewBox="0 0 33.003 33.041">
  <g id="Icon_feather-check-circle" data-name="Icon feather-check-circle" transform="translate(-1.497 -1.473)">
    <path id="Path_203" data-name="Path 203" d="M33,16.62V18A15,15,0,1,1,24.105,4.29" fill="none" stroke="#0DEEAA" stroke-linecap="round" stroke-linejoin="round" stroke-width="3"/>
    <path id="Icon_open-question-mark" data-name="Icon open-question-mark" d="M6.036,0A6.315,6.315,0,0,0,1.442,1.613,5.332,5.332,0,0,0,0,4.741l2.444.318A2.961,2.961,0,0,1,3.2,3.372a3.629,3.629,0,0,1,2.835-.929,4.312,4.312,0,0,1,2.981.831A2.043,2.043,0,0,1,9.7,4.888c0,2.028-.831,2.59-2.053,3.666a6.965,6.965,0,0,0-2.835,5.5v.611H7.258v-.611c0-2.028.758-2.59,1.979-3.666a7.007,7.007,0,0,0,2.908-5.5A4.7,4.7,0,0,0,10.7,1.442,6.754,6.754,0,0,0,6.036,0ZM4.814,17.106V19.55H7.258V17.106Z" transform="translate(11.256 8.441)" fill="#0DEEAA"/>
  </g>
</svg>
