<svg id="_660611" data-name="660611" xmlns="http://www.w3.org/2000/svg" width="40.56" height="40.56" viewBox="0 0 40.56 40.56">
  <circle id="Ellipse_24" data-name="Ellipse 24" cx="19.542" cy="19.542" r="19.542" transform="translate(0.737 0.737)" fill="#a4c2f7"/>
  <ellipse id="Ellipse_25" data-name="Ellipse 25" cx="18.436" cy="19.542" rx="18.436" ry="19.542" transform="translate(0.737 0.737)" fill="#f1fbff"/>
  <path id="Path_208" data-name="Path 208" d="M28.851,48.394c.191,0,.38-.009.569-.014-9.933-.3-17.9-8.926-17.9-19.528s7.966-19.226,17.9-19.528c-.19-.005-.378-.014-.569-.014a19.542,19.542,0,0,0,0,39.085Z" transform="translate(-8.572 -8.572)" fill="#fff"/>
  <path id="Path_209" data-name="Path 209" d="M103.918,108.525l-5.831,3.181a5.221,5.221,0,0,0-.936.666,19.532,19.532,0,0,0,25.094.064,5.22,5.22,0,0,0-1.028-.689l-6.244-3.122a2.381,2.381,0,0,1-1.316-2.13v-2.45a9.426,9.426,0,0,0,.591-.759,14.368,14.368,0,0,0,1.941-3.911,1.961,1.961,0,0,0,1.391-1.866V94.894a1.95,1.95,0,0,0-.654-1.449v-3.78s.776-5.883-7.19-5.883-7.19,5.883-7.19,5.883v3.78a1.95,1.95,0,0,0-.654,1.449v2.615a1.96,1.96,0,0,0,.9,1.645,12.968,12.968,0,0,0,2.364,4.891v2.389A2.382,2.382,0,0,1,103.918,108.525Z" transform="translate(-89.455 -77.145)" fill="#7facfa"/>
  <path id="Path_210" data-name="Path 210" d="M114.172,111.113l-8.215-3.122a2.381,2.381,0,0,1-1.316-2.13v-2.45a9.43,9.43,0,0,0,.591-.759,14.368,14.368,0,0,0,1.941-3.911,1.961,1.961,0,0,0,1.391-1.866V94.26a1.95,1.95,0,0,0-.654-1.449v-3.78s.776-5.883-7.19-5.883c-.474,0-.915.022-1.33.061a.853.853,0,0,1-.524.9A20.586,20.586,0,0,0,96.1,85.489a.758.758,0,0,1,.628.751c.159,2.715-.775,5.9-1.615,8.678.026,1.093.05,2.186.082,3.278.081.252.162.5.241.757a.852.852,0,0,1,.342.4c.337.8.712,1.624,1.038,2.462a.9.9,0,0,1,1.082.534,9.874,9.874,0,0,1,.536,2.517.635.635,0,0,1-.318.638,10.989,10.989,0,0,1-2.036,3.889.8.8,0,0,1-1.333-.352,3.973,3.973,0,0,1-.1-.417c-.548.326-1.136.61-1.771.966-.341.191-2.93,1.379-2.995,1.674-.366,1.668,5.483,3.738,8.42,4.908a19.6,19.6,0,0,0,2.411.166c4.76,0,11.091-1.7,14.481-4.531a5.223,5.223,0,0,0-1.028-.689Z" transform="translate(-82.752 -76.561)" fill="#b7e0ff"/>
  <g id="Group_2271" data-name="Group 2271">
    <path id="Path_211" data-name="Path 211" d="M20.28,40.56A20.28,20.28,0,1,1,40.56,20.28,20.28,20.28,0,0,1,20.28,40.56Zm0-39.085a18.8,18.8,0,1,0,18.8,18.8A18.805,18.805,0,0,0,20.28,1.475Z" fill="#172a40"/>
    <path id="Path_212" data-name="Path 212" d="M101.157,109.133a20.3,20.3,0,0,1-13.06-4.769.738.738,0,0,1-.009-1.12,5.95,5.95,0,0,1,1.068-.758l5.831-3.18a1.645,1.645,0,0,0,.857-1.444V95.729a13.844,13.844,0,0,1-2.281-4.711,2.685,2.685,0,0,1-.988-2.081V86.323a2.686,2.686,0,0,1,.654-1.747V81.134a5.948,5.948,0,0,1,1.388-4.325c1.359-1.55,3.559-2.336,6.539-2.336s5.18.786,6.539,2.336a5.949,5.949,0,0,1,1.388,4.325v3.442a2.686,2.686,0,0,1,.654,1.747v2.614a2.677,2.677,0,0,1-1.538,2.426,15.041,15.041,0,0,1-1.929,3.778c-.158.223-.31.424-.455.6v2.181a1.635,1.635,0,0,0,.909,1.47l6.244,3.122a5.925,5.925,0,0,1,1.173.785.737.737,0,0,1,0,1.13A20.3,20.3,0,0,1,101.157,109.133Zm-11.373-5.308a18.793,18.793,0,0,0,22.65.074l-.125-.065-6.244-3.122a3.1,3.1,0,0,1-1.724-2.789v-2.45a.737.737,0,0,1,.183-.486,8.849,8.849,0,0,0,.543-.7,13.63,13.63,0,0,0,1.841-3.711.738.738,0,0,1,.485-.478,1.232,1.232,0,0,0,.871-1.162V86.323a1.2,1.2,0,0,0-.411-.9.737.737,0,0,1-.243-.547v-3.78a.714.714,0,0,1,.007-.1,4.515,4.515,0,0,0-1.042-3.231c-1.069-1.206-2.891-1.818-5.417-1.818s-4.364.617-5.43,1.833A4.444,4.444,0,0,0,94.7,81a.717.717,0,0,1,.007.1v3.78a.737.737,0,0,1-.243.547,1.2,1.2,0,0,0-.41.9v2.614a1.221,1.221,0,0,0,.567,1.026.739.739,0,0,1,.318.454A12.317,12.317,0,0,0,97.149,95a.744.744,0,0,1,.171.472v2.389a3.118,3.118,0,0,1-1.626,2.739h0l-5.831,3.18Z" transform="translate(-80.877 -68.573)" fill="#172a40"/>
  </g>
</svg>
