<svg xmlns="http://www.w3.org/2000/svg" width="483.679" height="457.134" viewBox="0 0 483.679 457.134">
  <g id="Group_2160" data-name="Group 2160" transform="translate(1083 -562)">
    <g id="Group_2159" data-name="Group 2159" transform="translate(-1083 562)">
      <g id="Group_2158" data-name="Group 2158" transform="translate(0 0)">
        <path id="Path_9" data-name="Path 9" d="M16.661,16.578A7.576,7.576,0,1,0,9.085,9,7.567,7.567,0,0,0,16.661,16.578Z" transform="translate(162.263 -1.427)" fill="#fff"/>
        <path id="Path_10" data-name="Path 10" d="M18.1,16.578A7.576,7.576,0,1,0,10.525,9,7.567,7.567,0,0,0,18.1,16.578Z" transform="translate(190.547 -1.427)" fill="#fff"/>
        <path id="Path_11" data-name="Path 11" d="M19.541,16.578A7.576,7.576,0,1,0,11.965,9,7.567,7.567,0,0,0,19.541,16.578Z" transform="translate(218.831 -1.427)" fill="#fff"/>
        <path id="Path_12" data-name="Path 12" d="M13.929,2.116a.163.163,0,0,0,.165-.165.165.165,0,1,0-.33,0A.163.163,0,0,0,13.929,2.116Z" transform="translate(254.167 5.624)" fill="#fff"/>
        <path id="Path_13" data-name="Path 13" d="M22.342,16.417a7.493,7.493,0,1,0-7.493-7.493A7.479,7.479,0,0,0,22.342,16.417Z" transform="translate(275.478 -1.348)" fill="#fff"/>
        <path id="Path_14" data-name="Path 14" d="M20.954,10.656a4.541,4.541,0,1,0-4.521-4.541A4.555,4.555,0,0,0,20.954,10.656Z" transform="translate(306.591 1.46)" fill="#fff"/>
        <path id="Path_15" data-name="Path 15" d="M19.192,4.05a1.137,1.137,0,0,0,1.135-1.156,1.137,1.137,0,0,0-1.135-1.156,1.156,1.156,0,1,0,0,2.312Z" transform="translate(338.076 4.682)" fill="#fff"/>
        <path id="Path_16" data-name="Path 16" d="M12.262,17.878a7.5,7.5,0,1,0-7.493-7.514A7.5,7.5,0,0,0,12.262,17.878Z" transform="translate(77.489 26.936)" fill="#fff"/>
        <path id="Path_17" data-name="Path 17" d="M8.3,6.779A1.816,1.816,0,1,0,6.484,4.962,1.819,1.819,0,0,0,8.3,6.779Z" transform="translate(111.174 32.337)" fill="#fff"/>
        <path id="Path_18" data-name="Path 18" d="M12,11.452a4.211,4.211,0,1,0-4.19-4.211A4.2,4.2,0,0,0,12,11.452Z" transform="translate(137.2 30.059)" fill="#fff"/>
        <path id="Path_19" data-name="Path 19" d="M16.661,18.039a7.586,7.586,0,1,0-7.576-7.6A7.585,7.585,0,0,0,16.661,18.039Z" transform="translate(162.263 26.857)" fill="#fff"/>
        <path id="Path_20" data-name="Path 20" d="M11.756,5.006a.908.908,0,0,0,0-1.816.908.908,0,1,0,0,1.816Z" transform="translate(196.891 33.201)" fill="#fff"/>
        <path id="Path_21" data-name="Path 21" d="M13.982,6.6a1.727,1.727,0,0,0,1.734-1.713,1.734,1.734,0,1,0-3.468,0A1.727,1.727,0,0,0,13.982,6.6Z" transform="translate(224.39 32.416)" fill="#fff"/>
        <path id="Path_22" data-name="Path 22" d="M14.008,3.717a.266.266,0,0,0,.248-.248.248.248,0,0,0-.5,0A.266.266,0,0,0,14.008,3.717Z" transform="translate(254.088 33.83)" fill="#fff"/>
        <path id="Path_23" data-name="Path 23" d="M17.333,7.585A2.229,2.229,0,1,0,15.1,5.355,2.22,2.22,0,0,0,17.333,7.585Z" transform="translate(280.487 31.944)" fill="#fff"/>
        <path id="Path_24" data-name="Path 24" d="M22.525,15.279a6.172,6.172,0,1,0-6.172-6.172A6.175,6.175,0,0,0,22.525,15.279Z" transform="translate(305.019 28.193)" fill="#fff"/>
        <path id="Path_25" data-name="Path 25" d="M19.349,5.812a1.321,1.321,0,1,0-1.321-1.321A1.317,1.317,0,0,0,19.349,5.812Z" transform="translate(337.919 32.809)" fill="#fff"/>
        <path id="Path_26" data-name="Path 26" d="M19.925,4.04a.413.413,0,1,0,0-.826.413.413,0,1,0,0,.826Z" transform="translate(367.068 33.673)" fill="#fff"/>
        <path id="Path_27" data-name="Path 27" d="M3.352,6.909A1.137,1.137,0,0,0,4.508,5.774a1.156,1.156,0,0,0-2.312,0A1.137,1.137,0,0,0,3.352,6.909Z" transform="translate(26.95 61.25)" fill="#fff"/>
        <path id="Path_28" data-name="Path 28" d="M9.434,13.536A4.541,4.541,0,1,0,4.913,9,4.555,4.555,0,0,0,9.434,13.536Z" transform="translate(80.317 58.029)" fill="#fff"/>
        <path id="Path_29" data-name="Path 29" d="M12.288,16.417A6.017,6.017,0,1,0,6.281,10.39,6.017,6.017,0,0,0,12.288,16.417Z" transform="translate(107.187 56.634)" fill="#fff"/>
        <path id="Path_30" data-name="Path 30" d="M12.392,13.677a4.613,4.613,0,1,0-4.6-4.6A4.6,4.6,0,0,0,12.392,13.677Z" transform="translate(136.807 57.95)" fill="#fff"/>
        <path id="Path_31" data-name="Path 31" d="M19.1,24.453A10.135,10.135,0,1,0,8.961,14.318,10.14,10.14,0,0,0,19.1,24.453Z" transform="translate(159.827 52.706)" fill="#fff"/>
        <path id="Path_32" data-name="Path 32" d="M21.793,27.031A11.456,11.456,0,1,0,10.337,15.575,11.457,11.457,0,0,0,21.793,27.031Z" transform="translate(186.854 51.449)" fill="#fff"/>
        <circle id="Ellipse_1" data-name="Ellipse 1" cx="7.746" cy="7.746" r="7.746" transform="translate(230.626 59.275)" fill="#fff"/>
        <path id="Path_33" data-name="Path 33" d="M21.138,19.78A7.741,7.741,0,1,0,13.4,12.04,7.73,7.73,0,0,0,21.138,19.78Z" transform="translate(246.958 54.984)" fill="#fff"/>
        <path id="Path_34" data-name="Path 34" d="M17.333,9.025A2.229,2.229,0,1,0,15.1,6.8,2.233,2.233,0,0,0,17.333,9.025Z" transform="translate(280.487 60.229)" fill="#fff"/>
        <circle id="Ellipse_2" data-name="Ellipse 2" cx="1.975" cy="1.975" r="1.975" transform="translate(325.575 65.045)" fill="#fff"/>
        <path id="Path_35" data-name="Path 35" d="M27.677,24.292A10.053,10.053,0,1,0,17.6,14.24,10.052,10.052,0,0,0,27.677,24.292Z" transform="translate(329.591 52.784)" fill="#fff"/>
        <path id="Path_36" data-name="Path 36" d="M20.789,7.252a1.321,1.321,0,1,0-1.321-1.321A1.33,1.33,0,0,0,20.789,7.252Z" transform="translate(366.203 61.093)" fill="#fff"/>
        <path id="Path_37" data-name="Path 37" d="M2.645,6.92a.413.413,0,1,0-.413-.413A.414.414,0,0,0,2.645,6.92Z" transform="translate(27.657 90.241)" fill="#fff"/>
        <path id="Path_38" data-name="Path 38" d="M5.97,10.766A2.384,2.384,0,1,0,3.576,8.392,2.379,2.379,0,0,0,5.97,10.766Z" transform="translate(54.056 88.356)" fill="#fff"/>
        <path id="Path_39" data-name="Path 39" d="M10.691,17.534a5.852,5.852,0,1,0-5.842-5.842A5.841,5.841,0,0,0,10.691,17.534Z" transform="translate(79.06 85.056)" fill="#fff"/>
        <path id="Path_40" data-name="Path 40" d="M15.116,23.637a8.979,8.979,0,1,0-8.979-8.979A8.972,8.972,0,0,0,15.116,23.637Z" transform="translate(104.359 82.09)" fill="#fff"/>
        <path id="Path_41" data-name="Path 41" d="M15.456,21.4a7.834,7.834,0,1,0-7.823-7.823A7.818,7.818,0,0,0,15.456,21.4Z" transform="translate(133.743 83.17)" fill="#fff"/>
        <path id="Path_42" data-name="Path 42" d="M15.482,18.5a6.347,6.347,0,1,0-6.337-6.358A6.343,6.343,0,0,0,15.482,18.5Z" transform="translate(163.441 84.604)" fill="#fff"/>
        <path id="Path_43" data-name="Path 43" d="M20.458,25.753A10.063,10.063,0,1,0,10.405,15.68,10.069,10.069,0,0,0,20.458,25.753Z" transform="translate(188.19 81.069)" fill="#fff"/>
        <path id="Path_44" data-name="Path 44" d="M21.74,25.41a9.887,9.887,0,1,0-9.887-9.887A9.875,9.875,0,0,0,21.74,25.41Z" transform="translate(216.631 81.226)" fill="#fff"/>
        <path id="Path_45" data-name="Path 45" d="M21.295,21.562a7.916,7.916,0,1,0-7.906-7.906A7.906,7.906,0,0,0,21.295,21.562Z" transform="translate(246.801 83.092)" fill="#fff"/>
        <path id="Path_46" data-name="Path 46" d="M24.463,25.088a9.722,9.722,0,1,0-9.722-9.722A9.73,9.73,0,0,0,24.463,25.088Z" transform="translate(273.357 81.383)" fill="#fff"/>
        <path id="Path_47" data-name="Path 47" d="M23.173,19.468a6.843,6.843,0,1,0-6.853-6.832A6.827,6.827,0,0,0,23.173,19.468Z" transform="translate(304.371 84.113)" fill="#fff"/>
        <path id="Path_48" data-name="Path 48" d="M21.922,14.01A4.046,4.046,0,1,0,17.9,9.964,4.052,4.052,0,0,0,21.922,14.01Z" transform="translate(335.346 86.784)" fill="#fff"/>
        <path id="Path_49" data-name="Path 49" d="M20.161,7.4a.67.67,0,0,0,.681-.661.671.671,0,0,0-1.342,0A.665.665,0,0,0,20.161,7.4Z" transform="translate(366.832 90.006)" fill="#fff"/>
        <path id="Path_50" data-name="Path 50" d="M22.229,8.692a1.321,1.321,0,1,0-1.321-1.321A1.317,1.317,0,0,0,22.229,8.692Z" transform="translate(394.488 89.377)" fill="#fff"/>
        <path id="Path_51" data-name="Path 51" d="M3.509,10.132A1.321,1.321,0,1,0,2.188,8.811,1.33,1.33,0,0,0,3.509,10.132Z" transform="translate(26.793 117.661)" fill="#fff"/>
        <path id="Path_52" data-name="Path 52" d="M6.442,13.173A2.88,2.88,0,1,0,3.552,10.3,2.881,2.881,0,0,0,6.442,13.173Z" transform="translate(53.585 116.168)" fill="#fff"/>
        <path id="Path_53" data-name="Path 53" d="M9.512,16.557a4.613,4.613,0,1,0-4.6-4.6A4.594,4.594,0,0,0,9.512,16.557Z" transform="translate(80.238 114.519)" fill="#fff"/>
        <path id="Path_54" data-name="Path 54" d="M8.929,12.368A2.467,2.467,0,1,0,6.452,9.891,2.484,2.484,0,0,0,8.929,12.368Z" transform="translate(110.546 116.581)" fill="#fff"/>
        <path id="Path_55" data-name="Path 55" d="M13.119,17.987a5.346,5.346,0,1,0-5.367-5.346A5.347,5.347,0,0,0,13.119,17.987Z" transform="translate(136.08 113.831)" fill="#fff"/>
        <path id="Path_56" data-name="Path 56" d="M18.625,26.366a9.64,9.64,0,1,0-9.64-9.64A9.624,9.624,0,0,0,18.625,26.366Z" transform="translate(160.298 109.746)" fill="#fff"/>
        <path id="Path_57" data-name="Path 57" d="M20.379,27.011a9.97,9.97,0,1,0-9.97-9.97A9.963,9.963,0,0,0,20.379,27.011Z" transform="translate(188.268 109.431)" fill="#fff"/>
        <path id="Path_58" data-name="Path 58" d="M21.9,27.172A10.053,10.053,0,1,0,11.845,17.12,10.052,10.052,0,0,0,21.9,27.172Z" transform="translate(216.474 109.353)" fill="#fff"/>
        <path id="Path_59" data-name="Path 59" d="M22.316,25.077A8.979,8.979,0,1,0,13.337,16.1,8.959,8.959,0,0,0,22.316,25.077Z" transform="translate(245.78 110.374)" fill="#fff"/>
        <path id="Path_60" data-name="Path 60" d="M22.912,23.3a8.071,8.071,0,1,0-8.092-8.071A8.056,8.056,0,0,0,22.912,23.3Z" transform="translate(274.908 111.238)" fill="#fff"/>
        <path id="Path_61" data-name="Path 61" d="M19.638,13.677A3.138,3.138,0,1,0,16.5,10.54,3.136,3.136,0,0,0,19.638,13.677Z" transform="translate(307.907 115.933)" fill="#fff"/>
        <circle id="Ellipse_3" data-name="Ellipse 3" cx="7.499" cy="7.499" r="7.499" transform="translate(349.765 118.967)" fill="#fff"/>
        <path id="Path_62" data-name="Path 62" d="M21.555,11.743A2.147,2.147,0,1,0,19.429,9.6,2.145,2.145,0,0,0,21.555,11.743Z" transform="translate(365.437 116.876)" fill="#fff"/>
        <path id="Path_63" data-name="Path 63" d="M30.538,27.172A10.053,10.053,0,1,0,20.485,17.12,10.052,10.052,0,0,0,30.538,27.172Z" transform="translate(386.179 109.353)" fill="#fff"/>
        <path id="Path_64" data-name="Path 64" d="M23.512,9.81a1.156,1.156,0,1,0-1.156-1.156A1.154,1.154,0,0,0,23.512,9.81Z" transform="translate(422.929 117.818)" fill="#fff"/>
        <path id="Path_65" data-name="Path 65" d="M5.788,16.245A3.716,3.716,0,1,0,2.072,12.53,3.713,3.713,0,0,0,5.788,16.245Z" transform="translate(24.515 143.667)" fill="#fff"/>
        <path id="Path_66" data-name="Path 66" d="M6.756,15.258a3.21,3.21,0,1,0-3.22-3.2A3.207,3.207,0,0,0,6.756,15.258Z" transform="translate(53.27 144.138)" fill="#fff"/>
        <path id="Path_67" data-name="Path 67" d="M12.262,23.617a7.493,7.493,0,1,0-7.493-7.493A7.492,7.492,0,0,0,12.262,23.617Z" transform="translate(77.489 140.073)" fill="#fff"/>
        <path id="Path_68" data-name="Path 68" d="M9.715,15.419a3.292,3.292,0,1,0-3.3-3.282A3.295,3.295,0,0,0,9.715,15.419Z" transform="translate(109.76 144.06)" fill="#fff"/>
        <path id="Path_69" data-name="Path 69" d="M12.333,17.856a4.541,4.541,0,1,0-4.541-4.541A4.537,4.537,0,0,0,12.333,17.856Z" transform="translate(136.866 142.881)" fill="#fff"/>
        <path id="Path_70" data-name="Path 70" d="M15.246,20.9a6.1,6.1,0,1,0-6.089-6.089A6.1,6.1,0,0,0,15.246,20.9Z" transform="translate(163.677 141.389)" fill="#fff"/>
        <circle id="Ellipse_4" data-name="Ellipse 4" cx="8.486" cy="8.486" r="8.486" transform="translate(200.163 147.713)" fill="#fff"/>
        <path id="Path_71" data-name="Path 71" d="M19.933,24.6a8,8,0,1,0-7.988-7.988A7.981,7.981,0,0,0,19.933,24.6Z" transform="translate(218.438 139.581)" fill="#fff"/>
        <path id="Path_72" data-name="Path 72" d="M20.038,21.844a6.585,6.585,0,1,0-6.585-6.585A6.594,6.594,0,0,0,20.038,21.844Z" transform="translate(248.058 140.937)" fill="#fff"/>
        <path id="Path_73" data-name="Path 73" d="M21.478,21.844a6.585,6.585,0,1,0-6.585-6.585A6.563,6.563,0,0,0,21.478,21.844Z" transform="translate(276.342 140.937)" fill="#fff"/>
        <circle id="Ellipse_5" data-name="Ellipse 5" cx="3.87" cy="3.87" r="3.87" transform="translate(323.68 152.329)" fill="#fff"/>
        <path id="Path_74" data-name="Path 74" d="M23.729,20.555A5.924,5.924,0,1,0,17.8,14.631,5.929,5.929,0,0,0,23.729,20.555Z" transform="translate(333.539 141.565)" fill="#fff"/>
        <path id="Path_75" data-name="Path 75" d="M23.912,18a4.613,4.613,0,1,0,0-9.227,4.613,4.613,0,0,0,0,9.227Z" transform="translate(363.08 142.822)" fill="#fff"/>
        <path id="Path_76" data-name="Path 76" d="M26.531,20.394a5.842,5.842,0,1,0-5.842-5.842A5.854,5.854,0,0,0,26.531,20.394Z" transform="translate(390.186 141.644)" fill="#fff"/>
        <circle id="Ellipse_6" data-name="Ellipse 6" cx="4.535" cy="4.535" r="4.535" transform="translate(441.908 151.664)" fill="#fff"/>
        <path id="Path_77" data-name="Path 77" d="M10.8,27.957a8.979,8.979,0,1,0-8.979-8.979A8.959,8.959,0,0,0,10.8,27.957Z" transform="translate(19.506 166.943)" fill="#fff"/>
        <path id="Path_78" data-name="Path 78" d="M12.158,27.8a8.9,8.9,0,1,0-8.9-8.9A8.9,8.9,0,0,0,12.158,27.8Z" transform="translate(47.869 167.021)" fill="#fff"/>
        <path id="Path_79" data-name="Path 79" d="M10.769,22.036a5.945,5.945,0,1,0-5.924-5.945A5.929,5.929,0,0,0,10.769,22.036Z" transform="translate(78.981 169.83)" fill="#fff"/>
        <path id="Path_80" data-name="Path 80" d="M10.029,17.484A3.612,3.612,0,1,0,6.4,13.871,3.621,3.621,0,0,0,10.029,17.484Z" transform="translate(109.446 172.049)" fill="#fff"/>
        <path id="Path_81" data-name="Path 81" d="M12.176,18.934A4.355,4.355,0,1,0,7.8,14.578,4.361,4.361,0,0,0,12.176,18.934Z" transform="translate(137.023 171.342)" fill="#fff"/>
        <circle id="Ellipse_7" data-name="Ellipse 7" cx="4.616" cy="4.616" r="4.616" transform="translate(174.31 181.297)" fill="#fff"/>
        <path id="Path_82" data-name="Path 82" d="M17.236,23.486A6.688,6.688,0,1,0,10.569,16.8,6.682,6.682,0,0,0,17.236,23.486Z" transform="translate(191.411 169.123)" fill="#fff"/>
        <path id="Path_83" data-name="Path 83" d="M18.833,23.808A6.853,6.853,0,1,0,12,16.955,6.863,6.863,0,0,0,18.833,23.808Z" transform="translate(219.538 168.966)" fill="#fff"/>
        <path id="Path_84" data-name="Path 84" d="M22.395,28.119a9.062,9.062,0,1,0-9.062-9.062A9.047,9.047,0,0,0,22.395,28.119Z" transform="translate(245.701 166.864)" fill="#fff"/>
        <path id="Path_85" data-name="Path 85" d="M23.049,26.507a8.236,8.236,0,1,0-8.236-8.236A8.232,8.232,0,0,0,23.049,26.507Z" transform="translate(274.771 167.65)" fill="#fff"/>
        <path id="Path_86" data-name="Path 86" d="M23.7,24.915a7.421,7.421,0,1,0-7.41-7.41A7.409,7.409,0,0,0,23.7,24.915Z" transform="translate(303.841 168.416)" fill="#fff"/>
        <path id="Path_87" data-name="Path 87" d="M24.593,23.808a6.853,6.853,0,1,0-6.832-6.853A6.863,6.863,0,0,0,24.593,23.808Z" transform="translate(332.675 168.966)" fill="#fff"/>
        <path id="Path_88" data-name="Path 88" d="M20.868,13.173a1.4,1.4,0,1,0-1.4-1.4A1.405,1.405,0,0,0,20.868,13.173Z" transform="translate(366.125 174.151)" fill="#fff"/>
        <path id="Path_89" data-name="Path 89" d="M23.093,14.785a2.229,2.229,0,0,0,0-4.459,2.229,2.229,0,0,0,0,4.459Z" transform="translate(393.623 173.365)" fill="#fff"/>
        <path id="Path_90" data-name="Path 90" d="M26.733,19.256a4.521,4.521,0,1,0-4.541-4.521A4.524,4.524,0,0,0,26.733,19.256Z" transform="translate(419.708 171.185)" fill="#fff"/>
        <path id="Path_91" data-name="Path 91" d="M31,25.077a7.5,7.5,0,1,0-7.514-7.493A7.5,7.5,0,0,0,31,25.077Z" transform="translate(445.164 168.337)" fill="#fff"/>
        <path id="Path_92" data-name="Path 92" d="M11.818,31.492A10.053,10.053,0,1,0,1.765,21.44,10.038,10.038,0,0,0,11.818,31.492Z" transform="translate(18.485 194.205)" fill="#fff"/>
        <path id="Path_93" data-name="Path 93" d="M7.522,19.729A4.025,4.025,0,1,0,3.5,15.7,4.035,4.035,0,0,0,7.522,19.729Z" transform="translate(52.504 199.941)" fill="#fff"/>
        <path id="Path_94" data-name="Path 94" d="M9.826,21.5a4.933,4.933,0,1,0-4.933-4.933A4.938,4.938,0,0,0,9.826,21.5Z" transform="translate(79.924 199.077)" fill="#fff"/>
        <path id="Path_95" data-name="Path 95" d="M16.373,31.976a10.3,10.3,0,1,0-10.3-10.3A10.3,10.3,0,0,0,16.373,31.976Z" transform="translate(103.102 193.97)" fill="#fff"/>
        <path id="Path_96" data-name="Path 96" d="M15.3,26.819a7.658,7.658,0,1,0-7.658-7.658A7.655,7.655,0,0,0,15.3,26.819Z" transform="translate(133.9 196.484)" fill="#fff"/>
        <path id="Path_97" data-name="Path 97" d="M17.289,27.947a8.236,8.236,0,1,0-8.236-8.236A8.219,8.219,0,0,0,17.289,27.947Z" transform="translate(161.634 195.934)" fill="#fff"/>
        <path id="Path_98" data-name="Path 98" d="M18.886,28.269a8.4,8.4,0,1,0-8.4-8.4A8.4,8.4,0,0,0,18.886,28.269Z" transform="translate(189.761 195.777)" fill="#fff"/>
        <circle id="Ellipse_8" data-name="Ellipse 8" cx="5.851" cy="5.851" r="5.851" transform="translate(232.521 209.794)" fill="#fff"/>
        <path id="Path_99" data-name="Path 99" d="M20.293,25.208a6.832,6.832,0,1,0-6.853-6.832A6.827,6.827,0,0,0,20.293,25.208Z" transform="translate(247.803 197.269)" fill="#fff"/>
        <path id="Path_100" data-name="Path 100" d="M22.813,27.5A8.009,8.009,0,1,0,14.825,19.5,8.017,8.017,0,0,0,22.813,27.5Z" transform="translate(275.007 196.15)" fill="#fff"/>
        <path id="Path_101" data-name="Path 101" d="M23.7,26.336a7.41,7.41,0,1,0-7.41-7.41A7.422,7.422,0,0,0,23.7,26.336Z" transform="translate(303.841 196.72)" fill="#fff"/>
        <path id="Path_102" data-name="Path 102" d="M25.85,27.807A8.164,8.164,0,1,0,17.7,19.633,8.162,8.162,0,0,0,25.85,27.807Z" transform="translate(331.418 196.012)" fill="#fff"/>
        <path id="Path_103" data-name="Path 103" d="M28.312,29.881a9.227,9.227,0,1,0-9.227-9.227A9.223,9.223,0,0,0,28.312,29.881Z" transform="translate(358.681 194.991)" fill="#fff"/>
        <path id="Path_104" data-name="Path 104" d="M21.758,13.485a.826.826,0,1,0-.826-.826A.828.828,0,0,0,21.758,13.485Z" transform="translate(394.959 202.985)" fill="#fff"/>
        <circle id="Ellipse_9" data-name="Ellipse 9" cx="2.217" cy="2.217" r="2.217" transform="translate(444.226 213.428)" fill="#fff"/>
        <path id="Path_105" data-name="Path 105" d="M1.362,14.442a.577.577,0,0,0,.578-.578.564.564,0,0,0-.578-.578.564.564,0,0,0-.578.578A.577.577,0,0,0,1.362,14.442Z" transform="translate(-0.784 231.505)" fill="#fff"/>
        <path id="Path_106" data-name="Path 106" d="M5.97,17.987a2.394,2.394,0,1,0-2.394-2.394A2.4,2.4,0,0,0,5.97,17.987Z" transform="translate(54.056 229.777)" fill="#fff"/>
        <path id="Path_107" data-name="Path 107" d="M13.912,31.34a9.237,9.237,0,1,0-9.227-9.227A9.237,9.237,0,0,0,13.912,31.34Z" transform="translate(75.839 223.256)" fill="#fff"/>
        <path id="Path_108" data-name="Path 108" d="M15.116,30.837a8.979,8.979,0,1,0-8.979-8.979A8.959,8.959,0,0,0,15.116,30.837Z" transform="translate(104.359 223.511)" fill="#fff"/>
        <path id="Path_109" data-name="Path 109" d="M14.278,26.184A6.6,6.6,0,1,0,7.693,19.6,6.607,6.607,0,0,0,14.278,26.184Z" transform="translate(134.921 225.77)" fill="#fff"/>
        <path id="Path_110" data-name="Path 110" d="M17.053,28.9a7.988,7.988,0,1,0-7.988-7.988A7.995,7.995,0,0,0,17.053,28.9Z" transform="translate(161.87 224.454)" fill="#fff"/>
        <path id="Path_111" data-name="Path 111" d="M17.413,26.688a6.853,6.853,0,1,0-6.853-6.853A6.863,6.863,0,0,0,17.413,26.688Z" transform="translate(191.234 225.534)" fill="#fff"/>
        <path id="Path_112" data-name="Path 112" d="M17.91,24.755a5.862,5.862,0,1,0-5.862-5.862A5.858,5.858,0,0,0,17.91,24.755Z" transform="translate(220.461 226.477)" fill="#fff"/>
        <path id="Path_113" data-name="Path 113" d="M21.079,28.279A7.668,7.668,0,1,0,13.4,20.621,7.66,7.66,0,0,0,21.079,28.279Z" transform="translate(247.017 224.748)" fill="#fff"/>
        <path id="Path_114" data-name="Path 114" d="M21.792,26.809a6.915,6.915,0,1,0-6.915-6.915A6.933,6.933,0,0,0,21.792,26.809Z" transform="translate(276.028 225.475)" fill="#fff"/>
        <path id="Path_115" data-name="Path 115" d="M24.8,30.031a8.566,8.566,0,1,0-8.566-8.546A8.541,8.541,0,0,0,24.8,30.031Z" transform="translate(302.741 223.884)" fill="#fff"/>
        <path id="Path_116" data-name="Path 116" d="M27.5,32.61a9.887,9.887,0,1,0-9.887-9.887A9.9,9.9,0,0,0,27.5,32.61Z" transform="translate(329.768 222.647)" fill="#fff"/>
        <path id="Path_117" data-name="Path 117" d="M29.1,32.932A10.053,10.053,0,1,0,19.045,22.88,10.069,10.069,0,0,0,29.1,32.932Z" transform="translate(357.895 222.49)" fill="#fff"/>
        <path id="Path_118" data-name="Path 118" d="M22.386,16.214A1.486,1.486,0,1,0,20.9,14.728,1.493,1.493,0,0,0,22.386,16.214Z" transform="translate(394.33 230.641)" fill="#fff"/>
        <path id="Path_119" data-name="Path 119" d="M22.707,13.959a.339.339,0,0,0,.33-.33.326.326,0,0,0-.33-.33.309.309,0,0,0-.31.33A.322.322,0,0,0,22.707,13.959Z" transform="translate(423.734 231.741)" fill="#fff"/>
        <path id="Path_120" data-name="Path 120" d="M3.352,17.01a1.167,1.167,0,0,0,1.156-1.156,1.156,1.156,0,1,0-2.312,0A1.167,1.167,0,0,0,3.352,17.01Z" transform="translate(26.95 259.239)" fill="#fff"/>
        <path id="Path_121" data-name="Path 121" d="M13.965,35.821a10.8,10.8,0,1,0-10.8-10.775A10.774,10.774,0,0,0,13.965,35.821Z" transform="translate(46.062 250.047)" fill="#fff"/>
        <path id="Path_122" data-name="Path 122" d="M13.912,32.761a9.227,9.227,0,1,0-9.227-9.227A9.223,9.223,0,0,0,13.912,32.761Z" transform="translate(75.839 251.559)" fill="#fff"/>
        <path id="Path_123" data-name="Path 123" d="M14.488,30.988A8.319,8.319,0,1,0,6.169,22.67,8.307,8.307,0,0,0,14.488,30.988Z" transform="translate(104.987 252.424)" fill="#fff"/>
        <path id="Path_124" data-name="Path 124" d="M16.163,31.472A8.566,8.566,0,1,0,7.6,22.905,8.572,8.572,0,0,0,16.163,31.472Z" transform="translate(133.036 252.188)" fill="#fff"/>
        <path id="Path_125" data-name="Path 125" d="M18.546,33.405a9.557,9.557,0,1,0-9.557-9.557A9.549,9.549,0,0,0,18.546,33.405Z" transform="translate(160.377 251.245)" fill="#fff"/>
        <path id="Path_126" data-name="Path 126" d="M17.786,28.913a7.256,7.256,0,1,0-7.245-7.245A7.241,7.241,0,0,0,17.786,28.913Z" transform="translate(190.861 253.425)" fill="#fff"/>
        <path id="Path_127" data-name="Path 127" d="M18.2,26.818a6.182,6.182,0,1,0-6.172-6.172A6.162,6.162,0,0,0,18.2,26.818Z" transform="translate(220.167 254.447)" fill="#fff"/>
        <path id="Path_128" data-name="Path 128" d="M20.666,28.913a7.256,7.256,0,1,0-7.245-7.245A7.241,7.241,0,0,0,20.666,28.913Z" transform="translate(247.429 253.425)" fill="#fff"/>
        <circle id="Ellipse_10" data-name="Ellipse 10" cx="8.405" cy="8.405" r="8.405" transform="translate(289.413 266.686)" fill="#fff"/>
        <path id="Path_129" data-name="Path 129" d="M25.825,33.566a9.64,9.64,0,1,0-9.64-9.64A9.638,9.638,0,0,0,25.825,33.566Z" transform="translate(301.719 251.167)" fill="#fff"/>
        <circle id="Ellipse_11" data-name="Ellipse 11" cx="10.381" cy="10.381" r="10.381" transform="translate(346.883 264.711)" fill="#fff"/>
        <path id="Path_130" data-name="Path 130" d="M28.155,32.439a9.062,9.062,0,1,0-9.062-9.062A9.091,9.091,0,0,0,28.155,32.439Z" transform="translate(358.838 251.717)" fill="#fff"/>
        <path id="Path_131" data-name="Path 131" d="M28.731,30.686a8.164,8.164,0,1,0-8.154-8.154A8.158,8.158,0,0,0,28.731,30.686Z" transform="translate(387.986 252.561)" fill="#fff"/>
        <circle id="Ellipse_12" data-name="Ellipse 12" cx="7.58" cy="7.58" r="7.58" transform="translate(438.863 267.512)" fill="#fff"/>
        <path id="Path_132" data-name="Path 132" d="M10.953,34.04a9.144,9.144,0,1,0-9.144-9.165A9.14,9.14,0,0,0,10.953,34.04Z" transform="translate(19.349 279.922)" fill="#fff"/>
        <path id="Path_133" data-name="Path 133" d="M4.792,18.45a1.156,1.156,0,1,0-1.156-1.177A1.159,1.159,0,0,0,4.792,18.45Z" transform="translate(55.234 287.524)" fill="#fff"/>
        <path id="Path_134" data-name="Path 134" d="M13.833,34.04a9.144,9.144,0,1,0-9.144-9.165A9.14,9.14,0,0,0,13.833,34.04Z" transform="translate(75.917 279.922)" fill="#fff"/>
        <path id="Path_135" data-name="Path 135" d="M14.173,31.784a7.988,7.988,0,1,0-7.988-8.009A7.986,7.986,0,0,0,14.173,31.784Z" transform="translate(105.301 281.022)" fill="#fff"/>
        <path id="Path_136" data-name="Path 136" d="M17.892,36.476a10.393,10.393,0,1,0-10.383-10.4A10.382,10.382,0,0,0,17.892,36.476Z" transform="translate(131.307 278.724)" fill="#fff"/>
        <path id="Path_137" data-name="Path 137" d="M17.525,32.77a8.494,8.494,0,1,0-8.484-8.5A8.488,8.488,0,0,0,17.525,32.77Z" transform="translate(161.398 280.531)" fill="#fff"/>
        <path id="Path_138" data-name="Path 138" d="M17.158,29.064a6.6,6.6,0,1,0-6.585-6.605A6.594,6.594,0,0,0,17.158,29.064Z" transform="translate(191.49 282.338)" fill="#fff"/>
        <path id="Path_139" data-name="Path 139" d="M19.069,30.011a7.08,7.08,0,1,0-7.08-7.1A7.07,7.07,0,0,0,19.069,30.011Z" transform="translate(219.302 281.886)" fill="#fff"/>
        <path id="Path_140" data-name="Path 140" d="M17.838,24.552a4.283,4.283,0,1,0-4.273-4.293A4.26,4.26,0,0,0,17.838,24.552Z" transform="translate(250.258 284.538)" fill="#fff"/>
        <path id="Path_141" data-name="Path 141" d="M18.669,23.244a3.612,3.612,0,1,0-3.633-3.633A3.612,3.612,0,0,0,18.669,23.244Z" transform="translate(279.151 285.186)" fill="#fff"/>
        <path id="Path_142" data-name="Path 142" d="M25.825,35.006a9.64,9.64,0,1,0-9.64-9.66A9.642,9.642,0,0,0,25.825,35.006Z" transform="translate(301.719 279.451)" fill="#fff"/>
        <path id="Path_143" data-name="Path 143" d="M24.142,28.561A6.337,6.337,0,1,0,17.784,22.2,6.343,6.343,0,0,0,24.142,28.561Z" transform="translate(333.127 282.593)" fill="#fff"/>
        <path id="Path_144" data-name="Path 144" d="M29.176,35.973A10.135,10.135,0,1,0,19.041,25.818,10.131,10.131,0,0,0,29.176,35.973Z" transform="translate(357.816 278.979)" fill="#fff"/>
        <path id="Path_145" data-name="Path 145" d="M21.993,18.289a1.073,1.073,0,1,0-1.073-1.094A1.071,1.071,0,0,0,21.993,18.289Z" transform="translate(394.723 287.602)" fill="#fff"/>
        <path id="Path_146" data-name="Path 146" d="M24.166,16.839a.344.344,0,0,0,.33-.351.331.331,0,0,0-.661,0A.344.344,0,0,0,24.166,16.839Z" transform="translate(451.999 288.309)" fill="#fff"/>
        <path id="Path_147" data-name="Path 147" d="M4.923,23.113a2.807,2.807,0,1,0-2.807-2.807A2.81,2.81,0,0,0,4.923,23.113Z" transform="translate(25.379 314.236)" fill="#fff"/>
        <path id="Path_148" data-name="Path 148" d="M5.97,22.307a2.41,2.41,0,0,0,2.394-2.394,2.394,2.394,0,1,0-4.789,0A2.41,2.41,0,0,0,5.97,22.307Z" transform="translate(54.056 314.629)" fill="#fff"/>
        <path id="Path_149" data-name="Path 149" d="M8.176,23.9a3.21,3.21,0,1,0-3.2-3.2A3.207,3.207,0,0,0,8.176,23.9Z" transform="translate(81.574 313.844)" fill="#fff"/>
        <path id="Path_150" data-name="Path 150" d="M15.588,36.124A9.475,9.475,0,1,0,6.113,26.65,9.461,9.461,0,0,0,15.588,36.124Z" transform="translate(103.887 307.892)" fill="#fff"/>
        <path id="Path_151" data-name="Path 151" d="M17.263,36.587a9.712,9.712,0,1,0-9.722-9.7A9.695,9.695,0,0,0,17.263,36.587Z" transform="translate(131.936 307.656)" fill="#fff"/>
        <circle id="Ellipse_13" data-name="Ellipse 13" cx="8.406" cy="8.406" r="8.406" transform="translate(170.521 326.132)" fill="#fff"/>
        <path id="Path_152" data-name="Path 152" d="M19.436,35.177A8.99,8.99,0,1,0,10.457,26.2,8.986,8.986,0,0,0,19.436,35.177Z" transform="translate(189.211 308.344)" fill="#fff"/>
        <path id="Path_153" data-name="Path 153" d="M18.6,30.484A6.585,6.585,0,1,0,12.013,23.9,6.589,6.589,0,0,0,18.6,30.484Z" transform="translate(219.774 310.642)" fill="#fff"/>
        <path id="Path_154" data-name="Path 154" d="M17.209,24.724A3.633,3.633,0,1,0,13.6,21.091,3.634,3.634,0,0,0,17.209,24.724Z" transform="translate(250.886 313.451)" fill="#fff"/>
        <path id="Path_155" data-name="Path 155" d="M21.871,31.31a7.008,7.008,0,1,0-7-7A7.021,7.021,0,0,0,21.871,31.31Z" transform="translate(275.949 310.229)" fill="#fff"/>
        <path id="Path_156" data-name="Path 156" d="M24.253,33.264a8.009,8.009,0,1,0-7.988-8.009A8,8,0,0,0,24.253,33.264Z" transform="translate(303.291 309.287)" fill="#fff"/>
        <path id="Path_157" data-name="Path 157" d="M25.536,32.9a7.823,7.823,0,1,0-7.823-7.823A7.823,7.823,0,0,0,25.536,32.9Z" transform="translate(331.732 309.463)" fill="#fff"/>
        <path id="Path_158" data-name="Path 158" d="M20.612,19.89a1.156,1.156,0,0,0,0-2.312,1.156,1.156,0,0,0,0,2.312Z" transform="translate(366.38 315.808)" fill="#fff"/>
        <circle id="Ellipse_14" data-name="Ellipse 14" cx="7.58" cy="7.58" r="7.58" transform="translate(409.131 326.958)" fill="#fff"/>
        <path id="Path_159" data-name="Path 159" d="M6.153,21.169a1.073,1.073,0,0,0,0-2.147,1.073,1.073,0,1,0,0,2.147Z" transform="translate(83.597 344.171)" fill="#fff"/>
        <path id="Path_160" data-name="Path 160" d="M16.216,38.853A10.135,10.135,0,1,0,6.081,28.718,10.14,10.14,0,0,0,16.216,38.853Z" transform="translate(103.259 335.548)" fill="#fff"/>
        <path id="Path_161" data-name="Path 161" d="M16.713,36.92a9.144,9.144,0,1,0-9.144-9.144A9.149,9.149,0,0,0,16.713,36.92Z" transform="translate(132.486 336.491)" fill="#fff"/>
        <path id="Path_162" data-name="Path 162" d="M16.975,34.522a7.916,7.916,0,1,0-7.906-7.906A7.907,7.907,0,0,0,16.975,34.522Z" transform="translate(161.948 337.649)" fill="#fff"/>
        <path id="Path_163" data-name="Path 163" d="M12.935,23.263a2.147,2.147,0,1,0-2.147-2.147A2.158,2.158,0,0,0,12.935,23.263Z" transform="translate(195.713 343.149)" fill="#fff"/>
        <path id="Path_164" data-name="Path 164" d="M17.989,30.655a5.935,5.935,0,1,0-5.945-5.924A5.942,5.942,0,0,0,17.989,30.655Z" transform="translate(220.383 339.535)" fill="#fff"/>
        <path id="Path_165" data-name="Path 165" d="M16.915,25.5a3.292,3.292,0,1,0-3.3-3.282A3.295,3.295,0,0,0,16.915,25.5Z" transform="translate(251.181 342.049)" fill="#fff"/>
        <path id="Path_166" data-name="Path 166" d="M21.713,32.428A6.843,6.843,0,1,0,14.881,25.6,6.814,6.814,0,0,0,21.713,32.428Z" transform="translate(276.106 338.671)" fill="#fff"/>
        <path id="Path_167" data-name="Path 167" d="M18.518,22.941a1.982,1.982,0,1,0-1.961-1.982A1.982,1.982,0,0,0,18.518,22.941Z" transform="translate(309.026 343.306)" fill="#fff"/>
        <path id="Path_168" data-name="Path 168" d="M23.808,30.816A6.017,6.017,0,1,0,17.8,24.809,6.03,6.03,0,0,0,23.808,30.816Z" transform="translate(333.461 339.457)" fill="#fff"/>
        <path id="Path_169" data-name="Path 169" d="M25.267,30.816a6.017,6.017,0,1,0-6.027-6.007A6.012,6.012,0,0,0,25.267,30.816Z" transform="translate(361.725 339.457)" fill="#fff"/>
        <path id="Path_170" data-name="Path 170" d="M21.286,19.719a.33.33,0,1,0,0-.661.33.33,0,1,0,0,.661Z" transform="translate(395.43 344.878)" fill="#fff"/>
        <path id="Path_171" data-name="Path 171" d="M7.41,25.187a2.394,2.394,0,1,0-2.394-2.394A2.4,2.4,0,0,0,7.41,25.187Z" transform="translate(82.34 371.198)" fill="#fff"/>
        <path id="Path_172" data-name="Path 172" d="M8.222,23.9a1.734,1.734,0,1,0-1.734-1.734A1.744,1.744,0,0,0,8.222,23.9Z" transform="translate(111.253 371.826)" fill="#fff"/>
        <path id="Path_173" data-name="Path 173" d="M13.512,31.773a5.769,5.769,0,1,0-5.78-5.759A5.766,5.766,0,0,0,13.512,31.773Z" transform="translate(135.687 367.976)" fill="#fff"/>
        <circle id="Ellipse_15" data-name="Ellipse 15" cx="10.22" cy="10.22" r="10.22" transform="translate(168.706 383.764)" fill="#fff"/>
        <circle id="Ellipse_16" data-name="Ellipse 16" cx="4.037" cy="4.037" r="4.037" transform="translate(204.613 389.947)" fill="#fff"/>
        <circle id="Ellipse_17" data-name="Ellipse 17" cx="1.975" cy="1.975" r="1.975" transform="translate(236.396 392.008)" fill="#fff"/>
        <path id="Path_174" data-name="Path 174" d="M22.238,37.876a8.9,8.9,0,1,0-8.9-8.9A8.884,8.884,0,0,0,22.238,37.876Z" transform="translate(245.858 365.01)" fill="#fff"/>
        <path id="Path_175" data-name="Path 175" d="M19.612,29.517a4.613,4.613,0,0,0,0-9.227,4.613,4.613,0,1,0,0,9.227Z" transform="translate(278.208 369.076)" fill="#fff"/>
        <path id="Path_176" data-name="Path 176" d="M20.954,29.356a4.531,4.531,0,1,0-4.521-4.521A4.537,4.537,0,0,0,20.954,29.356Z" transform="translate(306.591 369.155)" fill="#fff"/>
        <path id="Path_177" data-name="Path 177" d="M22.413,29.356a4.531,4.531,0,1,0-4.541-4.521A4.519,4.519,0,0,0,22.413,29.356Z" transform="translate(334.855 369.155)" fill="#fff"/>
        <circle id="Ellipse_18" data-name="Ellipse 18" cx="7.499" cy="7.499" r="7.499" transform="translate(379.497 386.485)" fill="#fff"/>
        <circle id="Ellipse_19" data-name="Ellipse 19" cx="0.081" cy="0.081" r="0.081" transform="translate(416.63 393.903)" fill="#fff"/>
        <path id="Path_178" data-name="Path 178" d="M6.886,22.6a.33.33,0,1,0-.33-.33A.326.326,0,0,0,6.886,22.6Z" transform="translate(112.588 401.446)" fill="#fff"/>
        <path id="Path_179" data-name="Path 179" d="M9.426,24.834A1.476,1.476,0,1,0,7.94,23.368,1.476,1.476,0,0,0,9.426,24.834Z" transform="translate(139.773 400.346)" fill="#fff"/>
        <path id="Path_180" data-name="Path 180" d="M13.3,29.829A4.035,4.035,0,1,0,9.256,25.8,4.03,4.03,0,0,0,13.3,29.829Z" transform="translate(165.621 397.91)" fill="#fff"/>
        <path id="Path_181" data-name="Path 181" d="M20.458,41.552A10.042,10.042,0,1,0,10.405,31.52,10.034,10.034,0,0,0,20.458,41.552Z" transform="translate(188.19 392.195)" fill="#fff"/>
        <path id="Path_182" data-name="Path 182" d="M21.9,41.552A10.042,10.042,0,1,0,11.845,31.52,10.034,10.034,0,0,0,21.9,41.552Z" transform="translate(216.474 392.195)" fill="#fff"/>
        <path id="Path_183" data-name="Path 183" d="M16.758,28.056A3.127,3.127,0,1,0,13.62,24.94,3.132,3.132,0,0,0,16.758,28.056Z" transform="translate(251.338 398.775)" fill="#fff"/>
        <path id="Path_184" data-name="Path 184" d="M17.962,27.574a2.88,2.88,0,1,0-2.89-2.89A2.9,2.9,0,0,0,17.962,27.574Z" transform="translate(279.858 399.03)" fill="#fff"/>
        <path id="Path_185" data-name="Path 185" d="M19.382,27.574a2.88,2.88,0,1,0,0-5.759,2.88,2.88,0,0,0,0,5.759Z" transform="translate(308.162 399.03)" fill="#fff"/>
        <path id="Path_186" data-name="Path 186" d="M23.729,33.535A5.935,5.935,0,1,0,17.8,27.611,5.942,5.942,0,0,0,23.729,33.535Z" transform="translate(333.539 396.103)" fill="#fff"/>
        <path id="Path_187" data-name="Path 187" d="M10,24.522a.591.591,0,0,0,.578-.578.578.578,0,1,0-1.156,0A.591.591,0,0,0,10,24.522Z" transform="translate(168.921 429.495)" fill="#fff"/>
        <path id="Path_188" data-name="Path 188" d="M18.748,30.624a3.705,3.705,0,1,0-3.716-3.695A3.709,3.709,0,0,0,18.748,30.624Z" transform="translate(279.072 426.509)" fill="#fff"/>
        <path id="Path_189" data-name="Path 189" d="M17.045,24.2a.413.413,0,1,0-.413-.413A.414.414,0,0,0,17.045,24.2Z" transform="translate(310.499 429.652)" fill="#fff"/>
        <path id="Path_190" data-name="Path 190" d="M19.192,25.629a1.119,1.119,0,0,0,1.135-1.135,1.137,1.137,0,0,0-1.135-1.156,1.154,1.154,0,0,0-1.156,1.156A1.137,1.137,0,0,0,19.192,25.629Z" transform="translate(338.076 428.945)" fill="#fff"/>
      </g>
    </g>
  </g>
</svg>
